<svg viewBox="0 0 824 669" fill="none" xmlns="http://www.w3.org/2000/svg"><mask id="a" style="mask-type:alpha" maskUnits="userSpaceOnUse" x="0" y="0" width="824" height="669"><rect width="824" height="669" rx="16" fill="#0C0C0D"/></mask><g mask="url(#a)"><mask id="b" style="mask-type:alpha" maskUnits="userSpaceOnUse" x="294" y="-17" width="537" height="703"><path d="M294-.955c0-8.837 7.163-16 16-16h504.576c8.836 0 16 7.163 16 16V669.15c0 8.837-7.164 16-16 16H310c-8.837 0-16-7.163-16-16V-.955Z" fill="#C4C4C4"/></mask><g filter="url(#c)" mask="url(#b)"><path d="M961.697 50.192c0-8.837-7.163-16-16-16H278.191v614.69h683.506V50.192Z" fill="url(#d)"/></g><path d="M419.229 481.721c0 60.134 48.748 108.882 108.881 108.882 60.134 0 108.881-48.748 108.881-108.882 0-60.133-48.747-108.881-108.881-108.881-60.133 0-108.881 48.748-108.881 108.881Z" fill="url(#e)"/><path fill-rule="evenodd" clip-rule="evenodd" d="M434.035 400.298c11.853-13.683 26.642-24.753 43.385-32.232l-.53-1.187c-16.919 7.557-31.861 18.743-43.838 32.568l.983.851Zm166.623-19.663c31.413 22.585 51.868 59.447 51.868 101.087h1.3c0-42.076-20.671-79.324-52.409-102.142l-.759 1.055ZM528.11 606.138c-38.86 0-73.558-17.815-96.375-45.725l-1.006.823c23.053 28.199 58.115 46.202 97.381 46.202v-1.3Z" fill="#fff"/><path fill-rule="evenodd" clip-rule="evenodd" d="m610.904 504.674-20.052 12.288-.68-1.109 20.053-12.287.679 1.108ZM623.6 507.019l-29.654 18.171-.68-1.108 29.655-18.172.679 1.109ZM625.144 526.313l-29.654 18.171-.68-1.108 29.655-18.172.679 1.109ZM624.519 515.689l-29.655 18.172-.679-1.109 29.655-18.171.679 1.108Z" fill="#0C0C0D"/><path d="M749.704 401.637c14.604-11.64 46.236-26.318 80.663-52.895V245.725c-6.128 3.01-20.313 15.717-20.901 18.774-.282 1.466.605 16.241-2.151 29.901h-2.352s1.786-5.58 2.352-13.371c.566-7.79.3-14.913.3-14.913-1.409 2.354-2.652 3.54-9.66 11.061-8.22 6.726-62.774 26.53-77.296 29.893-14.521 3.363-81.758 5.063-108.757 11.058-17.61 3.91-61.113 22.866-88.905 37.849-6.476 1.217-16.931 8.691-25.002 12.577-8.071 3.886-23.6 14.144-20.906 16.969 10.34-5.639 19.853-8.192 30.111-11.865-7.055 3.435-20.629 5.243-14.399 8.792 3.863 2.201 10.871-2.692 16.637-1.561 9.416.973 20.736-1.902 25.685-9.629 17.954-4.543 73.23-17.782 82.637-18.76 18.164-1.887 22.707-2.191 45.248-2.191 0 0-3.339-5.832-3.967-10.155-.627-4.323 7.898-18.039 16.282-19.47 10.48-1.79 30.162-7.924 42.942-2.556 12.781 5.367 7.739 23.562 5.361 32.941-1.425 5.621-2.507 9.349-5.28 13.575-1.854 2.825-4.513 5.393-8.354 10.675-12.505 17.194-7.401 45.063-21.467 79.961-9.662 23.97-37.748 58.936-51.682 70.862-1.149.203-4.38 1.136-8.111 3.245-4.664 2.636-7.908 8.922-9.125 12.166-1.216 3.244-6.286 7.502-7.705 9.124-1.136 1.298-1.825 4.461-2.028 5.881l-15.411 10.949c-2.068 1.671.001 5.141 3.26 3.057 66.316-26.119 107.115-69.337 119.404-87.605 17.976-30.264 24.958-71.798 32.577-81.322Z" fill="url(#f)"/><path fill-rule="evenodd" clip-rule="evenodd" d="M799.757 274.947a.65.65 0 0 0-.908.145c-4.226 5.83-8.448 9.588-11.884 12.367-.711.575-1.399 1.116-2.049 1.627a92.003 92.003 0 0 0-2.448 1.968c-1.234 1.043-2.239 2.033-2.822 3.094-.53.966-.374 2.19.085 3.431.469 1.268 1.311 2.712 2.4 4.242 2.18 3.066 5.428 6.591 8.937 9.92 3.511 3.333 7.306 6.492 10.596 8.824 1.643 1.166 3.172 2.133 4.484 2.812 1.282.665 2.451 1.106 3.342 1.111 1.02.005 2.278-.221 3.688-.57 1.419-.351 3.037-.839 4.788-1.381l1.211-.377c3.225-1.006 6.855-2.137 10.617-2.978a.65.65 0 0 0-.284-1.269c-3.817.853-7.501 2.002-10.722 3.006-.41.128-.812.254-1.207.376-1.752.543-3.337 1.021-4.715 1.361-1.386.343-2.516.536-3.369.532-.555-.003-1.483-.307-2.751-.965-1.239-.642-2.714-1.573-4.33-2.718-3.231-2.291-6.979-5.409-10.454-8.707-3.477-3.3-6.659-6.759-8.772-9.73-1.058-1.488-1.828-2.825-2.24-3.94-.422-1.141-.414-1.899-.164-2.354.459-.836 1.301-1.696 2.521-2.727.705-.596 1.499-1.22 2.381-1.914.65-.511 1.348-1.06 2.094-1.664 3.487-2.819 7.803-6.658 12.12-12.615a.65.65 0 0 0-.145-.907Z" fill="url(#g)"/><path d="M694.456 498.227c-9.209 11.839-43.005 35.593-43.006 39.405-.415.54.097 4.929 3.131 3.005 14.594-9.252 32.581-23.632 44.677-36.43 13.055-13.812 19.906-25.694 24.142-33.459-10.868-7.623-18.568 14.137-28.944 27.479Z" fill="#51CCFF" fill-opacity=".3"/><path fill-rule="evenodd" clip-rule="evenodd" d="M733.711 299.664a.65.65 0 0 0-.686.612c-.152 2.729-.532 5.091-1.218 6.915-.686 1.825-1.647 3.035-2.919 3.601-1.27.565-3.001.555-5.378-.4-2.378-.954-5.326-2.826-8.952-5.855a.648.648 0 0 0-.915.082.648.648 0 0 0 .082.915c3.675 3.071 6.743 5.038 9.3 6.065 2.558 1.027 4.682 1.142 6.392.38 1.71-.761 2.855-2.329 3.607-4.33.753-2.002 1.143-4.513 1.299-7.3a.65.65 0 0 0-.612-.685Z" fill="#003CB7"/><path d="M686.624 331.24c1.62 6.433 12.414 12.605 16.71 11.694-.949-5.482 1.203-13.234 8.379-14.109 12.342 0 11.929 15.891 4.62 22.565 1.568 3.841 3.715 8.932 6.098 5.958 15.313-28.88-.023-45.746-9.992-51.507 23.589 10.306 22.648-2.303 21.364-14.554-.574-5.481-4.463-13.396-12.782-14.193-8.319-.798 4.52 7.717-6.651 8.591-6.02.471-11.875-5.774-7.046 17.864-3.549-1.864-14.101-4.985-25.53-1.537-17.242 5.203-23.513 19.071-24.651 30.938-.881 9.183 3.333 11.662 2.393 8.927-.619-1.799 2.757-.575 4.951-5.956 2.165-5.313 8.034-8.865 8.708-9.272l.023-.015c.58-.352-5.812 7.3-4.176 8.199 1.636.899 5.165-1.149 8.526-3.593 3.361-2.443 10.267-11.156 11.132-9.941.836 1.175-4.215 1.449-2.076 9.941Z" fill="#003CB7"/><path fill-rule="evenodd" clip-rule="evenodd" d="M659.364 340.257a.65.65 0 0 0-.585.71c.359 3.696 2.017 7.126 3.928 10.247.927 1.514 1.922 2.969 2.868 4.352l.094.137c.945 1.382 1.834 2.687 2.572 3.929.142 1.812.509 4.922 1.016 7.858.261 1.511.561 2.987.889 4.222.313 1.18.673 2.226 1.093 2.855.488.969 1.409 1.307 2.333 1.332.916.024 1.938-.247 2.85-.583a19.9 19.9 0 0 0 2.436-1.112c.261-.14.485-.266.658-.367a53.172 53.172 0 0 0 2.597 1.939c1.83 1.283 4.385 2.914 7.276 4.3 5.713 2.738 13.04 4.654 18.557.472a.65.65 0 0 0-.785-1.036c-4.869 3.69-11.531 2.114-17.211-.609-2.806-1.345-5.298-2.935-7.091-4.192a50.5 50.5 0 0 1-2.674-2.005 11.706 11.706 0 0 1-.145-.119l-.035-.029-.009-.008-.002-.001-.363-.307-.402.253-.003.002-.012.007-.05.031-.197.118c-.172.101-.42.243-.723.405a18.5 18.5 0 0 1-2.271 1.038c-.86.317-1.697.521-2.366.503-.646-.017-1.021-.227-1.219-.641l-.022-.047-.03-.042c-.288-.416-.612-1.278-.934-2.49-.314-1.185-.606-2.619-.864-4.11-.515-2.982-.883-6.144-1.013-7.886l-.011-.151-.076-.13c-.779-1.325-1.723-2.71-2.696-4.133l-.087-.127c-.951-1.39-1.93-2.822-2.839-4.306-1.877-3.065-3.413-6.293-3.743-9.695a.649.649 0 0 0-.709-.584Zm62.607 15.459a.65.65 0 0 0-.79.47 38.55 38.55 0 0 1-2.87 7.669.65.65 0 1 0 1.16.587 39.837 39.837 0 0 0 2.97-7.936.65.65 0 0 0-.47-.79ZM830.425 245.244a.65.65 0 0 0-.901-.181c-7.649 5.09-15.37 12.336-20.56 18.714a.65.65 0 1 0 1.008.821c5.114-6.284 12.739-13.44 20.272-18.453a.65.65 0 0 0 .181-.901Zm-22.586 20.754a.652.652 0 0 0-.919.043 161.95 161.95 0 0 0-4.41 5.035l-.294.347c-1.071 1.265-1.902 2.224-3.269 3.562-1.876 1.835-5.693 4.099-10.711 6.555-4.994 2.445-11.1 5.044-17.487 7.563-12.773 5.039-26.633 9.745-34.878 12.236a.65.65 0 1 0 .376 1.244c8.279-2.501 22.173-7.218 34.979-12.27 6.404-2.526 12.545-5.14 17.581-7.605 5.011-2.453 9.006-4.796 11.049-6.794 1.41-1.379 2.271-2.375 3.352-3.651l.294-.347a158.706 158.706 0 0 1 4.379-4.999.651.651 0 0 0-.042-.919Z" fill="#0C0C0D"/><path d="M681.185 379.088c-1.585-.764-2.786-3.888-1.506-6.548 7.639.253 1.984-2.629 9.188-4.514 3.132-.819 9.346-11.265 9.216-17.289-.082-3.824 1.111-5.433 2.568-5.883 1.458-.45 3.376 3.593 5.959 6.701 3.488 4.196 9.618 8.397 8.844 16.471-2.88 2.658-4.407 7.105-7.935 14.616-2.748 5.853-2.972 6.54-3.755 8.385-5.199 3.947-9.257-1.201-11.075-2.797-3.254-2.857-5.558-2.095-5.541-8.571-.7.287-2.717.991-5.963-.571Z" fill="#003CB7"/><path d="M673.094 354.448c-1.412 2.378-3.653 1.986-5.248.767-1.224-.936-1.271-2.661-.221-3.789 1.115-1.2 2.784-2.514 4.566-3.49 3.597-1.973 7.61-2.284 8.824-.768 1.214 1.516-5.922 3.911-7.921 7.28Z" fill="#0C0C0D"/><path fill-rule="evenodd" clip-rule="evenodd" d="M830.733 348.854a.65.65 0 0 0-.912-.117c-16.36 12.642-29.035 20.169-41.242 27.17l-3.428 1.962c-11.014 6.295-21.906 12.52-35.031 22.078l-.06.043-.048.056c-2.596 2.985-4.776 7.857-6.912 13.868-1.557 4.38-3.108 9.423-4.782 14.865-.63 2.048-1.278 4.152-1.949 6.298-4.923 15.735-11.173 33.842-21.522 49.312-10.35 15.469-27.395 31.841-46.846 46.339-19.445 14.494-41.254 27.086-61.1 35.013a.65.65 0 1 0 .482 1.207c19.968-7.976 41.875-20.628 61.395-35.178 19.515-14.546 36.686-31.02 47.149-46.658 10.463-15.638 16.757-33.904 21.682-49.647.677-2.163 1.328-4.278 1.959-6.33 1.671-5.432 3.21-10.434 4.757-14.785 2.122-5.972 4.222-10.608 6.62-13.396 13.038-9.489 23.855-15.672 34.854-21.958 1.139-.652 2.281-1.304 3.427-1.961 12.229-7.014 24.962-14.575 41.39-27.269a.65.65 0 0 0 .117-.912Z" fill="#0C0C0D"/><path d="M673.48 355.899c-.362.651.969 2.081 2.971 3.194 2.003 1.113 3.92 1.488 4.282.837.362-.652-.968-2.082-2.971-3.195s-3.92-1.487-4.282-.836Z" fill="#0C0C0D"/><path fill-rule="evenodd" clip-rule="evenodd" d="M691.206 371.97a.649.649 0 0 0-.784.479c-.67 2.766-1.565 4.554-1.89 5.056a.65.65 0 0 0 1.091.707c.423-.653 1.366-2.585 2.062-5.457a.65.65 0 0 0-.479-.785ZM711.156 331.895a.65.65 0 0 0-.709.585l-1.131 11.797a.65.65 0 1 0 1.294.124l1.131-11.797a.651.651 0 0 0-.585-.709Z" fill="#0C0C0D"/><path fill-rule="evenodd" clip-rule="evenodd" d="m705.389 303.098 7.9 3.809.565-1.171-7.9-3.809-.565 1.171Z" fill="#21D789"/><path fill-rule="evenodd" clip-rule="evenodd" d="M686.824 325.711a.65.65 0 0 0-.714.579c-.444 4.238.14 7.488 1.367 9.969 1.229 2.484 3.077 4.148 5.076 5.25 3.967 2.187 8.549 2.179 10.226 2.078a.651.651 0 0 0-.078-1.298c-1.602.097-5.881.088-9.52-1.919-1.805-.995-3.446-2.477-4.539-4.687-1.094-2.213-1.664-5.206-1.239-9.258a.65.65 0 0 0-.579-.714ZM732.48 288.88a.65.65 0 0 0-.486.78 143.95 143.95 0 0 0 1.564 6.102l.232.837c.363 1.308.671 2.416.908 3.434.563 2.42.714 4.283.189 6.91-.344 1.726-1.304 2.668-2.658 3.109-1.412.46-3.298.386-5.432-.101-4.255-.973-9.169-3.511-12.427-5.906a.649.649 0 1 0-.769 1.047c3.365 2.474 8.439 5.105 12.906 6.126 2.227.509 4.386.637 6.125.07 1.796-.585 3.092-1.899 3.53-4.091.568-2.846.397-4.9-.198-7.459-.244-1.047-.561-2.187-.924-3.496l-.229-.827c-.462-1.67-.99-3.631-1.551-6.049a.65.65 0 0 0-.78-.486Z" fill="#003CB7"/><path d="M713.61 291.661c-4.386 1.349-2.137 5.398-1.574 12.484.524-1.5.001-6.073 3.036-9.56 3.459-3.973 10.911-6.748 7.76-6.074-2.775.595-4.836 1.8-9.222 3.15Z" fill="#020409"/><path d="M504.493 398.481c-.722.18-1.403.132-1.913-.064-.512-.197-.803-.516-.889-.861-.086-.344.021-.762.381-1.177.358-.412.936-.775 1.658-.956.721-.18 1.402-.131 1.912.065.513.197.803.516.889.86.086.345-.02.763-.38 1.177-.358.413-.936.776-1.658.956ZM491.543 407.304c.51.196 1.191.245 1.913.065s1.3-.543 1.658-.956c.36-.414.466-.833.38-1.177-.086-.345-.376-.664-.889-.861-.51-.195-1.191-.244-1.912-.064-.722.18-1.3.543-1.658.956-.36.414-.467.832-.381 1.177.086.344.377.663.889.86ZM482.419 416.65c-.722.18-1.403.132-1.913-.064-.512-.197-.803-.516-.889-.861-.086-.344.021-.763.381-1.177.358-.412.936-.775 1.658-.956.721-.18 1.402-.131 1.912.065.512.197.803.516.889.86.086.345-.02.763-.38 1.177-.358.413-.937.776-1.658.956Z" fill="#fff" fill-opacity=".2"/><path fill-rule="evenodd" clip-rule="evenodd" d="m495.506 428.138 32.583-26.082c5.485.068 11.946 1.252 15.824 2.079.901.192 1.502-.973.813-1.586-28.638-25.441-37.845-23.242-44.962-19.47-2.424 1.285-9.329 6.645-17.968 13.351-3.955 3.069-8.273 6.421-12.691 9.793-9.294 7.094-7.043 22.328 4.069 25.964a23.86 23.86 0 0 0 22.332-4.049Zm5.07-30.303c.202.807.838 1.365 1.592 1.655.756.29 1.681.337 2.603.106.923-.23 1.717-.706 2.248-1.317.529-.61.829-1.401.627-2.209-.201-.808-.838-1.365-1.592-1.655-.756-.29-1.68-.337-2.603-.107-.922.231-1.716.706-2.247 1.318-.53.61-.829 1.401-.628 2.209Zm-9.445 10.542c-.754-.289-1.39-.847-1.592-1.655-.201-.808.098-1.599.628-2.209.531-.611 1.325-1.087 2.247-1.317.923-.23 1.847-.184 2.603.107.754.289 1.391.847 1.592 1.654.202.808-.098 1.599-.627 2.209-.531.612-1.325 1.087-2.248 1.318-.922.23-1.847.183-2.603-.107Zm-12.629 7.627c.202.807.838 1.365 1.592 1.655.756.29 1.68.337 2.603.106.923-.23 1.717-.706 2.248-1.317.529-.61.829-1.401.627-2.209-.202-.808-.838-1.365-1.592-1.655-.756-.29-1.68-.337-2.603-.107-.922.231-1.716.706-2.247 1.318-.53.61-.829 1.401-.628 2.209Z" fill="#fff" fill-opacity=".2"/><path fill-rule="evenodd" clip-rule="evenodd" d="M815.101 294.937c-.502 2.008-1.797 4.182-3.794 6.016-1.997 1.834-4.273 2.94-6.316 3.27-2.049.332-3.778-.123-4.84-1.28-1.063-1.156-1.369-2.917-.865-4.931.502-2.007 1.797-4.182 3.794-6.016a14.104 14.104 0 0 1 3.381-2.318l-.566-1.171a15.394 15.394 0 0 0-3.695 2.532c-2.157 1.981-3.603 4.37-4.175 6.658-.571 2.281-.284 4.545 1.168 6.126 1.453 1.581 3.684 2.059 6.005 1.684 2.328-.376 4.831-1.615 6.989-3.596 2.157-1.982 3.603-4.371 4.175-6.658.571-2.282.284-4.545-1.168-6.127-1.619-1.762-4.198-2.153-6.808-1.521l.305 1.263c2.347-.568 4.363-.149 5.545 1.138 1.063 1.156 1.369 2.918.865 4.931Z" fill="#17E6E8"/><path fill-rule="evenodd" clip-rule="evenodd" d="M811.767 293.277c-.391 1.301-1.307 2.753-2.68 4.014-1.373 1.261-2.898 2.05-4.227 2.33-1.346.283-2.366.029-2.935-.592-.57-.62-.737-1.658-.341-2.975.391-1.301 1.307-2.753 2.68-4.014a10.742 10.742 0 0 1 2.11-1.522l-.622-1.142a12.107 12.107 0 0 0-2.368 1.707c-1.515 1.391-2.576 3.036-3.045 4.597-.465 1.545-.377 3.135.628 4.229 1.005 1.094 2.581 1.316 4.16.984 1.595-.335 3.324-1.253 4.839-2.645 1.515-1.391 2.576-3.036 3.046-4.597.465-1.545.376-3.135-.628-4.229-1.016-1.105-2.615-1.321-4.212-.973l.276 1.27c1.366-.297 2.402-.044 2.978.583.57.62.737 1.658.341 2.975Z" fill="#B5FFC1"/><path fill-rule="evenodd" clip-rule="evenodd" d="M728.903 360.096c3.151-2.568 7.264-2.073 10.24-.06 2.989 2.021 5.009 5.692 3.83 9.645-.327 1.094-.979 2.285-1.826 3.579-.85 1.299-1.926 2.747-3.128 4.351l-.269.36c-2.358 3.147-5.192 6.93-7.911 11.551-3.069 5.217-3.654 9.62-4.147 13.339l-.029.218c-.497 3.742-.956 6.984-4.185 9.348-2.061 1.509-5.058 2.195-7.687 1.468-2.695-.744-4.916-2.95-5.366-7.008-.222-2.006.067-5.39.82-9.424.756-4.053 1.991-8.821 3.698-13.617 1.706-4.795 3.888-9.634 6.545-13.82 2.643-4.166 5.779-7.723 9.415-9.93Zm9.512 1.017c2.649 1.791 4.288 4.924 3.312 8.196-.272.91-.841 1.975-1.668 3.239-.824 1.259-1.874 2.673-3.08 4.284l-.277.369c-2.355 3.144-5.227 6.977-7.983 11.662-3.204 5.445-3.817 10.066-4.313 13.804l-.032.241c-.505 3.802-.938 6.474-3.664 8.47-1.768 1.295-4.359 1.877-6.573 1.264-2.148-.593-4.024-2.334-4.42-5.899-.2-1.806.058-5.034.806-9.041.743-3.988 1.961-8.69 3.644-13.42 1.684-4.732 3.828-9.477 6.419-13.56 2.593-4.088 5.611-7.474 9.029-9.537l.041-.025.037-.03c2.593-2.139 6.072-1.809 8.722-.017Z" fill="#17E6E8"/><path fill-rule="evenodd" clip-rule="evenodd" d="M624.163 555.254a.65.65 0 0 0-.914-.097c-5.342 4.312-11.515 8.099-16.755 10.861-2.619 1.381-4.998 2.502-6.917 3.303-1.942.812-3.351 1.269-4.058 1.364-.445.06-.658-.067-.769-.197-.133-.154-.24-.454-.194-.927.092-.942.783-2.283 2.25-3.359 1.073-.787 2.568-1.737 4.23-2.793.76-.482 1.554-.987 2.359-1.509 2.537-1.643 5.163-3.444 6.956-5.16a.65.65 0 0 0-.899-.939c-1.693 1.621-4.223 3.362-6.764 5.008-.773.501-1.549.994-2.299 1.471-1.686 1.071-3.242 2.06-4.352 2.874-1.699 1.245-2.639 2.895-2.775 4.28-.067.691.062 1.389.501 1.901.459.536 1.151.743 1.929.638.897-.12 2.45-.643 4.386-1.452 1.96-.819 4.375-1.957 7.022-3.353 5.292-2.79 11.541-6.621 16.965-11a.65.65 0 0 0 .098-.914Z" fill="#000"/><path d="M615.276 348.009c13.724-1.647 25.537.919 32.214 2.164-7.244.513-26.704 2.187-27.764 2.081-1.061-.106-28.821 5.497-42.569 8.312 10.215-3.887 22.712-10.708 38.119-12.557Z" fill="#0C0C0D" fill-opacity=".3"/><path fill-rule="evenodd" clip-rule="evenodd" d="M689.577 467.651c.931 2.639 1.152 6.009.233 9.238-1.116 3.919-4.028 8.692-7.893 13.72-3.854 5.015-8.609 10.227-13.348 15.019a270.25 270.25 0 0 1-13.214 12.468c-3.781 3.33-6.564 5.566-7.458 6.135-3.571 2.272-7.834 2.132-11.053 1.623l-.203 1.284c3.305.522 7.971.725 11.954-1.81.995-.633 3.855-2.941 7.619-6.256a271.78 271.78 0 0 0 13.279-12.529c4.761-4.814 9.556-10.069 13.455-15.141 3.887-5.058 6.926-9.992 8.112-14.157.995-3.497.76-7.142-.258-10.026-1.003-2.844-2.847-5.136-5.217-5.577l-.237 1.278c1.685.314 3.283 2.052 4.229 4.731ZM599.768 325.895c.521 1.858.512 4.111-1.036 6.222-.324.442-.889.92-1.718 1.428-.821.503-1.86 1.011-3.086 1.528-2.455 1.034-5.603 2.078-9.144 3.175-1.7.526-3.49 1.064-5.332 1.618-5.807 1.746-12.138 3.649-17.839 5.842-2.14.823-4.408 1.726-6.733 2.652-5.841 2.325-12.034 4.791-17.424 6.478-3.77 1.18-7.083 1.957-9.568 2.05-1.244.047-2.225-.081-2.937-.374-.688-.283-1.116-.714-1.324-1.324l-1.23.419c.347 1.018 1.081 1.705 2.06 2.108.955.393 2.147.52 3.479.47 2.667-.1 6.117-.922 9.908-2.108 5.44-1.703 11.711-4.199 17.569-6.532 2.312-.92 4.56-1.815 6.667-2.626 5.65-2.173 11.913-4.056 17.71-5.799 1.852-.557 3.656-1.099 5.378-1.632 3.545-1.098 6.746-2.158 9.264-3.219 1.26-.531 2.364-1.068 3.261-1.618.891-.546 1.62-1.129 2.087-1.767 1.846-2.517 1.837-5.212 1.24-7.342a10.819 10.819 0 0 0-1.189-2.716c-.433-.703-.901-1.264-1.273-1.535l-.765 1.051c.169.123.53.515.931 1.166a9.48 9.48 0 0 1 1.044 2.385ZM594.317 349.328l-.763.162c-4.452.944-20.044 4.264-34.037 8.345-6.991 2.038-13.617 4.276-18.259 6.514-2.313 1.115-4.189 2.256-5.368 3.407-.591.577-1.044 1.191-1.267 1.843a2.572 2.572 0 0 0 .121 2.025l1.166-.575a1.27 1.27 0 0 1-.056-1.029c.132-.389.433-.835.944-1.334 1.024-1 2.745-2.067 5.024-3.166 4.541-2.189 11.082-4.403 18.059-6.437 13.942-4.066 29.491-7.377 33.943-8.321l.677-.144c4.367-.928 8.392-1.783 11.467-1.653 1.607.068 2.864.403 3.756 1.064.869.643 1.472 1.656 1.658 3.267l1.292-.149c-.219-1.894-.963-3.264-2.176-4.162-1.188-.881-2.745-1.246-4.475-1.319-3.247-.137-7.422.751-11.706 1.662Z" fill="#167DFF"/><path fill-rule="evenodd" clip-rule="evenodd" d="M734.147 351.573a.651.651 0 0 0-.907-.151c-8.704 6.218-14.813 11.399-19.676 18.053-4.863 6.654-8.451 14.738-12.187 26.72-.816 2.617-1.43 6.477-2.101 11.128-.126.869-.253 1.767-.384 2.692-.575 4.047-1.222 8.605-2.08 13.477-2.108 11.972-5.482 25.786-12.133 38.39-8.924 16.913-19.949 32.253-29.298 43.723-4.674 5.735-8.926 10.497-12.282 14.002-3.262 3.406-5.635 5.577-6.725 6.322-4.562.711-7.837 2.318-10.501 4.822-2.67 2.51-4.69 5.89-6.796 10.04-2.519 4.962-4.513 7.02-6.022 8.413-.166.153-.328.3-.487.444-1.308 1.183-2.359 2.134-2.973 4.399-.24.886-.324 1.728-.235 2.459.089.728.356 1.398.87 1.857.529.473 1.23.642 2.006.525.759-.114 1.605-.501 2.519-1.151 3.23-2.295 6.095-4.993 8.147-7.111a68.052 68.052 0 0 0 3.083-3.4l.172-.207.045-.055.012-.014.003-.004.001-.001-.505-.409.505.409a.65.65 0 0 0-1.011-.818l-.013.016-.041.05-.164.198c-.146.174-.362.428-.641.748-.558.64-1.37 1.541-2.379 2.582-2.022 2.086-4.825 4.724-7.967 6.956-.82.583-1.474.853-1.96.926-.468.07-.757-.041-.946-.209-.204-.183-.381-.516-.446-1.045-.064-.525-.009-1.193.2-1.962.511-1.886 1.3-2.602 2.59-3.774l.497-.454c1.614-1.491 3.706-3.671 6.299-8.78 2.096-4.129 4.032-7.335 6.528-9.681 2.475-2.327 5.537-3.84 9.947-4.505l.138-.021.117-.076c1.184-.763 3.711-3.081 7.071-6.59 3.383-3.531 7.658-8.32 12.352-14.08 9.387-11.516 20.464-26.928 29.44-43.937 6.743-12.779 10.146-26.747 12.263-38.771.863-4.896 1.513-9.48 2.088-13.528l.382-2.681c.675-4.679 1.277-8.429 2.056-10.927 3.718-11.923 7.255-19.853 11.996-26.34 4.74-6.486 10.714-11.571 19.381-17.762a.65.65 0 0 0 .152-.907Z" fill="#0C0C0D"/><path d="M603.937 560.33c-1.867 1.118 5.386-6.194 6.841-8.267-.221.491-.652 2.192-.766 3.9-.114 1.709 1.376 2.263 2.136 2.326-.721.397-2.516 1.376-4.177-.427-.546.427-1.815 1.754-4.034 2.468Z" fill="#0C0C0D"/><path d="M760.633 312.863a2 2 0 0 0-.482 2.787l2.123 3.011a2 2 0 0 0 2.787.482l3.01-2.123a2 2 0 0 0 .482-2.787l-2.123-3.011a2 2 0 0 0-2.787-.482l-3.01 2.123ZM753.264 318.059a2.001 2.001 0 0 0-.482 2.787l2.123 3.011a2.001 2.001 0 0 0 2.787.482l3.011-2.123a2 2 0 0 0 .482-2.787l-2.123-3.011a2.001 2.001 0 0 0-2.787-.482l-3.011 2.123ZM765.996 320.468a2 2 0 0 0-.482 2.787l2.123 3.011a2.001 2.001 0 0 0 2.787.482l3.011-2.123a2 2 0 0 0 .481-2.787l-2.122-3.011a2.001 2.001 0 0 0-2.787-.482l-3.011 2.123ZM758.149 330.529a2.002 2.002 0 0 0 1.63 2.312l3.63.627a2 2 0 0 0 2.311-1.63l.628-3.63a2 2 0 0 0-1.63-2.311l-3.63-.628a2 2 0 0 0-2.311 1.63l-.628 3.63Z" fill="#167DFF"/><path fill-rule="evenodd" clip-rule="evenodd" d="M662.863 349.831c-13.204-.553-32.476.098-46.045 2.195-10.388 1.606-60.787 12.369-81.771 18.671l-.166.05-.12.127c-2.738 2.907-6.143 6.487-10.877 7.945-6.57 2.024-10.929 1.669-14.862 1.349a94.329 94.329 0 0 0-2.163-.16c-1.94-.113-3.588.536-5.188 1.166-.402.158-.8.315-1.199.458-2.02.725-4.32 1.246-7.745.334-.218-.059-.522-.388-.614-.946-.089-.547.091-.886.316-.998.251-.125 1.226-.479 2.714-1.003l1.45-.508c1.175-.412 2.512-.88 3.907-1.377 4.007-1.429 8.545-3.115 11.115-4.4a.65.65 0 0 0-.581-1.163c-2.487 1.243-6.946 2.904-10.971 4.338-1.391.496-2.723.963-3.897 1.374l-1.454.51c-1.43.503-2.519.893-2.864 1.066-.965.482-1.149 1.567-1.017 2.371.129.794.631 1.744 1.562 1.992 3.749.999 6.328.42 8.518-.367.481-.172.932-.348 1.363-.517 1.563-.612 2.881-1.127 4.509-1.032.688.04 1.389.097 2.111.156 3.952.324 8.551.701 15.372-1.401 5.035-1.551 8.626-5.308 11.322-8.169 21.02-6.29 71.122-16.988 81.429-18.581 13.465-2.081 32.65-2.732 45.792-2.181a.65.65 0 1 0 .054-1.299ZM712.638 329.057c4.604.05 8.551 5.018 8.48 11.467-.032 2.907-.889 5.537-2.256 7.522l-.006.009-1.966 3.079a.65.65 0 1 0 1.095.699l1.954-3.059c1.52-2.211 2.444-5.092 2.479-8.236.075-6.83-4.148-12.719-9.766-12.781-5.618-.062-9.968 5.733-10.043 12.564a16.107 16.107 0 0 0 .252 3.042.65.65 0 0 0 1.28-.231 14.765 14.765 0 0 1-.232-2.797c.07-6.449 4.125-11.329 8.729-11.278Z" fill="#0C0C0D"/><path fill-rule="evenodd" clip-rule="evenodd" d="M660.685 334.621a.65.65 0 0 0-.793.465c-.687 2.64-1.584 6.868-2.046 10.991-.231 2.061-.355 4.111-.287 5.931.069 1.804.329 3.449.911 4.656.858 1.779 1.726 2.844 2.646 3.475.929.639 1.842.785 2.655.862a.649.649 0 1 0 .124-1.294c-.743-.071-1.388-.19-2.043-.64-.666-.456-1.408-1.304-2.211-2.968-.465-.964-.716-2.393-.782-4.14-.066-1.733.052-3.713.279-5.737.454-4.049 1.337-8.215 2.012-10.809a.65.65 0 0 0-.465-.792ZM708.911 283.315c-1.121-.011-2.236.197-3.171.853-1.256.882-1.74 2.431-1.85 4.09-.112 1.677.147 3.628.541 5.53.396 1.91.937 3.811 1.412 5.398.124.415.243.804.353 1.165.318 1.047.563 1.855.666 2.345l1.273-.267c-.116-.551-.389-1.447-.715-2.519l-.331-1.097c-.473-1.578-1.001-3.436-1.385-5.289-.386-1.86-.617-3.676-.517-5.18.101-1.523.53-2.571 1.3-3.112.633-.444 1.446-.626 2.412-.617.967.009 2.032.21 3.12.474a65.525 65.525 0 0 1 1.609.419c.526.141 1.045.279 1.536.393.951.222 1.915.383 2.681.226l-.26-1.273c-.456.093-1.163.005-2.126-.219a44.533 44.533 0 0 1-1.494-.383l-.084-.022c-.5-.135-1.024-.275-1.555-.404-1.115-.271-2.295-.5-3.415-.511Z" fill="#003CB7"/><g filter="url(#h)"><path d="M609.795 256.591c3.012 13.081 16.058 21.244 29.14 18.232 13.082-3.012 21.245-16.058 18.233-29.14-3.012-13.082-16.059-21.245-29.141-18.233-13.081 3.013-21.244 16.059-18.232 29.141Z" fill="#FFBD00"/></g><path fill-rule="evenodd" clip-rule="evenodd" d="M629.575 233.972c9.565-2.202 19.105 3.767 21.307 13.332 2.202 9.565-3.766 19.105-13.332 21.308-9.565 2.202-19.105-3.767-21.307-13.332-2.203-9.565 3.766-19.105 13.332-21.308Zm22.574 13.04c-2.364-10.265-12.601-16.67-22.866-14.306-10.265 2.363-16.671 12.601-14.307 22.866 2.364 10.265 12.601 16.67 22.866 14.306 10.265-2.363 16.67-12.601 14.307-22.866Z" fill="#fff"/><path fill-rule="evenodd" clip-rule="evenodd" d="m629.551 252.338.567 2.461 1.266-.292-.566-2.461-1.267.292ZM619.715 253.783l.567 2.46 1.267-.291-.567-2.461-1.267.292Z" fill="#fff"/><path fill-rule="evenodd" clip-rule="evenodd" d="M480.267 458.374a3.693 3.693 0 0 1 3.026.351c.452.271.843.634 1.149 1.066a3.904 3.904 0 0 1 .632 3.017v.002l-1.881 9.155 4.541.527c.846.1 1.616.539 2.141 1.216.525.677.764 1.536.668 2.388l-.236 2.127-21.154-2.455.236-2.128a3.263 3.263 0 0 1 1.179-2.173 3.151 3.151 0 0 1 2.355-.691l4.54.527-.013.713.649.015.072-.646-.708-.082.173-9.358c.011-.53.13-1.053.35-1.534a3.82 3.82 0 0 1 .928-1.262 3.735 3.735 0 0 1 1.353-.775Zm1.406 1.142a2.4 2.4 0 0 0-1.006.098 2.443 2.443 0 0 0-.885.507 2.522 2.522 0 0 0-.614.836 2.595 2.595 0 0 0-.233 1.021l-.2 10.781-5.955-.691a1.864 1.864 0 0 0-1.39.409 1.971 1.971 0 0 0-.709 1.313l-.093.836 18.571 2.155.093-.836a1.993 1.993 0 0 0-.402-1.442 1.878 1.878 0 0 0-1.261-.72l-5.955-.691 2.167-10.549a2.577 2.577 0 0 0-.418-2.004 2.486 2.486 0 0 0-.752-.697 2.405 2.405 0 0 0-.958-.326ZM490.086 480.392l-21.245-2.376-.138 1.293 21.245 2.375.138-1.292Z" fill="#FFF73A"/><path fill-rule="evenodd" clip-rule="evenodd" d="M621.629 487.184a.339.339 0 0 0-.471-.141l-38.848 21.846a.349.349 0 0 0-.146.463c6.26 12.73 10.877 30.601 8.304 45.873-1.29 7.65-4.389 14.677-10.021 20.059-5.634 5.385-13.747 9.072-24.967 10.137-17.527 1.665-27.785-7.782-30.762-11.038-.806-.881-.356-2.181.684-2.537l45.611-15.65c.65-.223 1.336-.014 1.782.443 1.636 1.677 4.235 3.143 7.023 4.191 2.598.976 5.289 1.564 7.405 1.638.882-2.378 1.527-4.876 1.963-7.459 2.513-14.913-2.001-32.501-8.189-45.083a1.651 1.651 0 0 1 .676-2.171l38.848-21.845a1.638 1.638 0 0 1 2.276.704c4.251 8.706 6.293 18.117 6.943 26.091.325 3.988.302 7.627.03 10.648-.271 3.008-.793 5.452-1.496 7.024l-1.186-.531c.616-1.378 1.121-3.655 1.387-6.609.265-2.94.289-6.504-.031-10.427-.639-7.848-2.65-17.095-6.815-25.626Zm-34.908 76.56c-2.208-.141-4.847-.753-7.36-1.697-2.88-1.083-5.675-2.633-7.497-4.5a.416.416 0 0 0-.429-.121l-45.612 15.649a.31.31 0 0 0-.206.202.23.23 0 0 0 .06.229c2.838 3.103 12.726 12.231 29.68 10.621 10.992-1.043 18.811-4.639 24.192-9.782 3.178-3.038 5.525-6.633 7.172-10.601Z" fill="#0C0C0D"/><path fill-rule="evenodd" clip-rule="evenodd" d="M460.818 522.025a2.35 2.35 0 0 0-1.138 3.123l23.249 49.9a2.35 2.35 0 0 0 3.123 1.137l49.899-23.249a2.35 2.35 0 0 0 1.138-3.122l-17.792-38.188 1.178-.549 17.792 38.188a3.65 3.65 0 0 1-1.767 4.85l-49.899 23.249a3.65 3.65 0 0 1-4.85-1.767l-23.249-49.9a3.649 3.649 0 0 1 1.767-4.85l46.644-21.732.549 1.178-46.644 21.732Z" fill="#167DFF"/><path fill-rule="evenodd" clip-rule="evenodd" d="M507.457 433.527c28.011-2.45 55.182 10.181 71.33 33.224.134.19.155.437.057.647a78.636 78.636 0 0 1-64.442 45.167.65.65 0 0 1-.589-.274c-16.149-23.043-18.751-52.899-6.888-78.391a.65.65 0 0 1 .532-.373Zm.488 1.263c-11.433 24.883-8.901 53.93 6.718 76.446 27.268-2.517 51.17-19.275 62.844-44.046-15.836-22.364-42.269-34.654-69.562-32.4Z" fill="#17E6E8"/><path fill-rule="evenodd" clip-rule="evenodd" d="M507.566 433.723c28.193-2.473 55.046 10.082 71.223 33.335a.652.652 0 0 1-.534 1.022H548.46a.65.65 0 0 1-.54-.288c-8.15-12.127-18.285-20.334-26.388-25.51-4.051-2.587-7.59-4.415-10.114-5.595a61.964 61.964 0 0 0-2.959-1.296 32.518 32.518 0 0 0-.989-.385l-.049-.018-.012-.004-.003-.001m3.049-.16c26.293-1.378 51.107 10.494 66.544 31.957h-28.194c-8.242-12.157-18.429-20.391-26.574-25.593-4.105-2.623-7.695-4.477-10.262-5.677a69.004 69.004 0 0 0-1.514-.687Z" fill="#17E6E8"/><path fill-rule="evenodd" clip-rule="evenodd" d="M547.837 467.354a.65.65 0 0 1 .641-.541h29.777a.65.65 0 0 1 .587.93c-12.008 25.218-36.222 42.39-64.249 44.822a.65.65 0 0 1-.43-1.179l.233.33-.233-.33.001-.001.019-.013.062-.045.248-.178c.217-.158.538-.394.949-.703.821-.618 2.001-1.528 3.429-2.694a128.937 128.937 0 0 0 10.682-9.757c7.969-8.173 16.334-19.166 18.284-30.641Zm1.185.759c-2.185 11.683-10.651 22.701-18.538 30.79a130.28 130.28 0 0 1-10.791 9.857 118.244 118.244 0 0 1-2.872 2.271c26.219-3.078 48.78-19.315 60.397-42.918h-28.196Z" fill="#17E6E8"/><path d="M575.805 549.936c0 13.454-10.907 24.361-24.361 24.361s-24.36-10.907-24.36-24.361 10.906-24.361 24.36-24.361c13.454 0 24.361 10.907 24.361 24.361Z" fill="#fff" fill-opacity=".2"/><path fill-rule="evenodd" clip-rule="evenodd" d="M551.447 539.483a.65.65 0 0 1 .65.65v19.606a.65.65 0 1 1-1.3 0v-19.606a.65.65 0 0 1 .65-.65Z" fill="#51CCFF"/><path fill-rule="evenodd" clip-rule="evenodd" d="M542.377 544.741a.65.65 0 0 1 .887-.24l17.008 9.749a.65.65 0 1 1-.647 1.127l-17.008-9.748a.65.65 0 0 1-.24-.888Z" fill="#51CCFF"/><path fill-rule="evenodd" clip-rule="evenodd" d="M560.512 544.741a.65.65 0 0 1-.24.888l-17.008 9.748a.65.65 0 1 1-.647-1.127l17.008-9.749a.65.65 0 0 1 .887.24Z" fill="#51CCFF"/><path fill-rule="evenodd" clip-rule="evenodd" d="M449.003 486.649c-7.385 0-13.371 5.987-13.371 13.371 0 7.385 5.986 13.372 13.371 13.372 7.385 0 13.372-5.987 13.372-13.372 0-7.384-5.987-13.371-13.372-13.371Zm-14.671 13.371c0-8.102 6.568-14.671 14.671-14.671s14.672 6.569 14.672 14.671c0 8.103-6.569 14.672-14.672 14.672-8.103 0-14.671-6.569-14.671-14.672Z" fill="#B5FFC1"/><path fill-rule="evenodd" clip-rule="evenodd" d="M444.824 497.35a.65.65 0 0 1-.569.722c-.255.03-.781.181-1.276.493-.491.309-.87.723-.994 1.247-.221.949.028 2.075.664 2.638.355.314.82.491 1.384.578.57.087 1.192.075 1.835.047a.649.649 0 1 1 .056 1.298c-.644.028-1.38.048-2.087-.06-.713-.109-1.445-.354-2.05-.89-1.096-.97-1.363-2.644-1.068-3.907v-.002c.23-.974.91-1.636 1.568-2.049.653-.412 1.363-.63 1.815-.684a.65.65 0 0 1 .722.569Z" fill="#B5FFC1"/><path fill-rule="evenodd" clip-rule="evenodd" d="M446.266 492.46a8.329 8.329 0 0 1 2.052.198l.04.011a4.699 4.699 0 0 1 2.678 2.031c.59.954.871 2.065.803 3.183l-.001.006a3.605 3.605 0 0 1-1.125 2.37c-.817.792-1.803 1.137-2.556 1.288-.38.077-.712.106-.95.116-.056.002-.107.004-.152.004-.286.268-.458.744-.492 1.331v.003a4.11 4.11 0 0 0 .611 2.418v.001a3.382 3.382 0 0 0 1.918 1.462c.57.129 1.154.185 1.737.165.023 0 .045 0 .068.002.314.022.629-.011.931-.099a1.49 1.49 0 0 0 .824-1.006 4.614 4.614 0 0 0 .058-1.721.662.662 0 0 1 .002-.213v-.004l-.003-.006a.02.02 0 0 0-.009-.005.019.019 0 0 0-.013-.001c-.036.005-.074.006-.111.005l-3.579-.129a.65.65 0 0 1 .047-1.3l3.533.128a1.328 1.328 0 0 1 1.063.396 1.299 1.299 0 0 1 .368 1.02 5.883 5.883 0 0 1-.089 2.12l-.001.005a2.78 2.78 0 0 1-1.672 1.943 3.963 3.963 0 0 1-1.407.166 8.17 8.17 0 0 1-2.056-.203l-.036-.009a4.685 4.685 0 0 1-2.679-2.033 5.414 5.414 0 0 1-.802-3.18c.046-.818.327-1.885 1.225-2.457a.651.651 0 0 1 .389-.1h.001-.001.01l.05.002c.047 0 .119 0 .211-.004.186-.008.448-.031.75-.091.609-.123 1.333-.389 1.91-.95l.007-.007h.001c.424-.399.681-.94.722-1.516a4.115 4.115 0 0 0-.61-2.415m-3.665-2.925a3.963 3.963 0 0 0-1.407.165.61.61 0 0 0-.071.027 2.803 2.803 0 0 0-1.602 1.916l-.001.006a5.917 5.917 0 0 0-.083 2.159 1.515 1.515 0 0 0 .526 1.119.65.65 0 0 0 .132.089c.232.116.488.172.746.164l3.554.132a.65.65 0 0 0 .048-1.299l-3.579-.133a.58.58 0 0 0-.059 0 .216.216 0 0 1-.044-.001.2.2 0 0 1-.024-.104.636.636 0 0 0-.008-.115 4.613 4.613 0 0 1 .058-1.721 1.511 1.511 0 0 1 .824-1.007 2.66 2.66 0 0 1 .931-.098c.023.001.045.002.067.001a7.055 7.055 0 0 1 1.739.162 3.4 3.4 0 0 1 1.918 1.463" fill="#B5FFC1"/><path fill-rule="evenodd" clip-rule="evenodd" d="M453.274 496.507c.713.109 1.444.354 2.05.89 1.096.967 1.362 2.645 1.067 3.907v.002c-.23.973-.91 1.634-1.567 2.048-.653.412-1.363.631-1.816.685a.65.65 0 0 1-.153-1.291c.254-.03.781-.182 1.276-.494.491-.31.871-.724.995-1.246.221-.95-.029-2.078-.663-2.637l-.001-.001c-.356-.314-.82-.491-1.385-.578-.569-.087-1.192-.075-1.834-.047a.65.65 0 1 1-.057-1.298c.644-.028 1.38-.048 2.088.06Z" fill="#B5FFC1"/><path d="M451.658 505.985a.948.948 0 0 0 .353-.567.462.462 0 0 0-.021-.315.41.41 0 0 0-.513-.154.803.803 0 0 0-.395.413.512.512 0 0 0 0 .599.622.622 0 0 0 .544.059M446.128 495.945a.952.952 0 0 0 .354-.567.462.462 0 0 0-.022-.315.408.408 0 0 0-.512-.154.794.794 0 0 0-.396.413.517.517 0 0 0 0 .598.615.615 0 0 0 .545.06" fill="#B5FFC1"/><path fill-rule="evenodd" clip-rule="evenodd" d="M567.575 387.507a2.65 2.65 0 0 1 3.743.193l49.419 54.793a2.651 2.651 0 0 1-.193 3.743l-10.318 9.305a2.65 2.65 0 0 1-3.742-.193l-49.419-54.793a2.65 2.65 0 0 1 .193-3.743l10.317-9.305Zm2.777 1.063a1.35 1.35 0 0 0-1.906-.098l-10.318 9.305a1.351 1.351 0 0 0-.098 1.907l49.419 54.793a1.35 1.35 0 0 0 1.907.099l10.317-9.306a1.348 1.348 0 0 0 .098-1.906l-49.419-54.794Z" fill="#FFBD00"/><path fill-rule="evenodd" clip-rule="evenodd" d="M575.193 406.326a.65.65 0 0 1 .918.047l25.656 28.446a.65.65 0 0 1-.965.871l-25.656-28.446a.65.65 0 0 1 .047-.918Z" fill="#FFBD00"/><path d="M566.014 396.15a1.9 1.9 0 0 1 2.684.138l7.5 8.317a1.9 1.9 0 1 1-2.821 2.545l-7.501-8.317a1.9 1.9 0 0 1 .138-2.683ZM607.466 442.026a1.488 1.488 0 1 1-1.993-2.21 1.488 1.488 0 0 1 1.993 2.21ZM611.272 445.605a1.487 1.487 0 1 1-1.992-2.207 1.487 1.487 0 0 1 1.992 2.207Z" fill="#fff"/><path d="M608.575 464.414h-9.509c-2.564-.002-4.96 1.59-5.946 3.968a6.484 6.484 0 0 0-.002 4.926 6.435 6.435 0 0 0 1.395 2.089 6.476 6.476 0 0 0 4.553 1.884h3.855a2 2 0 0 1 2 2v3.679c2.594-2.431 5.148-4.91 7.831-7.244a6.475 6.475 0 0 0 2.24-4.884c-.01-3.492-2.926-6.408-6.417-6.418Z" fill="#fff" fill-opacity=".2"/><path fill-rule="evenodd" clip-rule="evenodd" d="M488.41 537.359a.35.35 0 0 0-.466-.169l-19.57 9.174-.552-1.178 19.571-9.173a1.65 1.65 0 0 1 2.196.798l3.443 7.399a1.65 1.65 0 0 1-.773 2.18l-18.896 9.198-.569-1.168 18.896-9.199a.35.35 0 0 0 .164-.462l-3.444-7.4Z" fill="#167DFF"/><path fill-rule="evenodd" clip-rule="evenodd" d="M557.822-18.043a.65.65 0 0 1 .44.807c-9.373 31.82-5.181 55.329 6.678 72.833 11.88 17.534 31.523 29.146 53.249 37.005 21.718 7.857 45.443 11.936 65.397 14.453 8.365 1.056 16.06 1.836 22.666 2.506 1.272.129 2.504.253 3.692.375 7.336.753 13.066 1.399 16.393 2.219 6.211 1.53 11.037 4.362 13.158 9.255.77 1.775 1.17 3.792 1.164 6.076 5.699.655 12.298 2.519 19.874 6.057 9.913 4.629 18.179 14.054 24.879 26.244 6.704 12.2 11.874 27.233 15.563 43.179 7.376 31.883 8.858 67.535 4.761 91.718a.65.65 0 0 1-1.282-.217c4.063-23.982 2.6-59.458-4.746-91.208-3.671-15.872-8.807-30.783-15.436-42.845-6.634-12.072-14.729-21.229-24.289-25.693-7.428-3.469-13.855-5.286-19.37-5.932-.248 3.723-1.505 8.107-3.913 13.246a.65.65 0 1 1-1.177-.551c2.387-5.093 3.571-9.323 3.795-12.827-7.162-.618-12.715.78-16.865 3.054-3.766 2.064-6.412 4.866-8.08 7.602-1.678 2.752-2.337 5.385-2.209 7.096.265 3.555 1.999 5.671 4.216 6.685 2.254 1.031 5.084.956 7.535-.065a.65.65 0 0 1 .5 1.2c-2.729 1.137-5.942 1.253-8.576.047-2.673-1.222-4.673-3.771-4.971-7.77-.155-2.066.627-4.97 2.396-7.87 1.778-2.917 4.586-5.885 8.564-8.065 4.397-2.409 10.182-3.837 17.53-3.215-.01-2.074-.381-3.873-1.055-5.429-1.885-4.347-6.232-7.02-12.277-8.51-3.218-.793-8.841-1.431-16.215-2.187a2594.04 2594.04 0 0 0-3.686-.376c-6.606-.669-14.319-1.451-22.702-2.509-19.987-2.521-43.823-6.615-65.676-14.52-21.845-7.903-41.783-19.64-53.883-37.5-12.12-17.888-16.308-41.816-6.849-73.929a.65.65 0 0 1 .807-.44Z" fill="url(#j)"/><path fill-rule="evenodd" clip-rule="evenodd" d="M559.65-18.982a.65.65 0 0 1 .48.784c-7.754 32.273-2.825 55.839 9.282 73.207 12.125 17.393 31.515 28.668 52.864 36.203 21.344 7.534 44.577 11.306 64.307 13.74 6.278.774 12.188 1.412 17.572 1.993 3.082.332 5.991.646 8.699.956 7.407.849 13.324 1.673 17.004 2.785 6.716 2.029 10.203 6.359 11.317 11.593.225 1.056.353 2.147.393 3.259 6.04.634 12.782 2.56 20.116 6.228 9.813 4.908 18.083 13.911 24.843 25.507 6.763 11.601 12.041 25.838 15.851 41.284 7.618 30.887 9.389 66.694 5.367 96.106a.65.65 0 0 1-1.288-.176c3.999-29.247 2.238-64.889-5.342-95.619-3.789-15.363-9.027-29.476-15.711-40.94-6.685-11.468-14.793-20.243-24.302-24.999-7.148-3.576-13.689-5.453-19.528-6.084-.098 3.966-1.246 8.149-3.062 12.045-2.535 5.441-6.409 10.407-10.702 13.531-4.282 3.117-9.112 4.484-13.433 2.403-4.284-2.064-6.049-5.959-5.598-10.221.448-4.222 3.058-8.785 7.439-12.402 5.453-4.502 13.664-7.565 24.044-6.781a17.483 17.483 0 0 0-.358-2.87c-1.014-4.76-4.15-8.724-10.422-10.62-3.547-1.071-9.342-1.885-16.776-2.737-2.69-.308-5.592-.622-8.671-.954-5.393-.581-11.327-1.222-17.612-1.997-19.755-2.437-43.1-6.222-64.579-13.804-21.474-7.58-41.153-18.978-53.498-36.686-12.362-17.733-17.302-41.698-9.48-74.254a.65.65 0 0 1 .784-.48Zm180.626 145.706c-10.134-.791-18.051 2.204-23.23 6.48-4.183 3.452-6.57 7.725-6.974 11.536-.4 3.773 1.131 7.111 4.87 8.913 3.703 1.784 8.007.699 12.103-2.283 4.085-2.973 7.83-7.752 10.289-13.029 1.78-3.819 2.865-7.855 2.942-11.617Z" fill="url(#k)"/></g><defs><radialGradient id="d" cx="0" cy="0" r="1" gradientUnits="userSpaceOnUse" gradientTransform="rotate(149.097 444.106 235.808) scale(783.263 302.323)"><stop offset=".421" stop-color="#167DFF"/><stop offset=".88" stop-color="#17E6E8" stop-opacity="0"/></radialGradient><radialGradient id="e" cx="0" cy="0" r="1" gradientUnits="userSpaceOnUse" gradientTransform="matrix(-1.36187 181.12388 -178.12496 -1.33933 529.601 480.15)"><stop offset=".341" stop-color="#51CCFF" stop-opacity=".03"/><stop offset="1" stop-color="#51CCFF"/></radialGradient><radialGradient id="f" cx="0" cy="0" r="1" gradientUnits="userSpaceOnUse" gradientTransform="rotate(-45.006 817.623 -575.08) scale(297.945 184.142)"><stop offset=".233" stop-color="#17E6E8"/><stop offset=".589" stop-color="#167DFF"/><stop offset="1" stop-color="#2A294A"/></radialGradient><linearGradient id="g" x1="785.045" y1="312.215" x2="812.16" y2="289.423" gradientUnits="userSpaceOnUse"><stop stop-color="#167DFF"/><stop offset=".792" stop-color="#17E6E8"/></linearGradient><linearGradient id="j" x1="681.01" y1="62.727" x2="681.01" y2="294.575" gradientUnits="userSpaceOnUse"><stop stop-color="#17E6E8"/><stop offset="1" stop-color="#B5FFC1"/></linearGradient><linearGradient id="k" x1="683.393" y1="63.321" x2="683.393" y2="294.834" gradientUnits="userSpaceOnUse"><stop stop-color="#17E6E8"/><stop offset="1" stop-color="#B5FFC1"/></linearGradient><filter id="c" x="233.191" y="-10.808" width="773.506" height="704.691" filterUnits="userSpaceOnUse" color-interpolation-filters="sRGB"><feFlood flood-opacity="0" result="BackgroundImageFix"/><feBlend mode="normal" in="SourceGraphic" in2="BackgroundImageFix" result="shape"/><feGaussianBlur stdDeviation="22.5" result="effect1_foregroundBlur_1736_11080"/></filter><filter id="h" x="577.17" y="194.825" width="112.623" height="112.623" filterUnits="userSpaceOnUse" color-interpolation-filters="sRGB"><feFlood flood-opacity="0" result="BackgroundImageFix"/><feBlend mode="normal" in="SourceGraphic" in2="BackgroundImageFix" result="shape"/><feGaussianBlur stdDeviation="16" result="effect1_foregroundBlur_1736_11080"/></filter><filter id="i" x="517.084" y="515.575" width="68.721" height="68.721" filterUnits="userSpaceOnUse" color-interpolation-filters="sRGB"><feFlood flood-opacity="0" result="BackgroundImageFix"/><feGaussianBlur in="BackgroundImage" stdDeviation="5"/><feComposite in2="SourceAlpha" operator="in" result="effect1_backgroundBlur_1736_11080"/><feBlend mode="normal" in="SourceGraphic" in2="effect1_backgroundBlur_1736_11080" result="shape"/></filter></defs></svg>