<svg width="502" height="501" xmlns="http://www.w3.org/2000/svg" xmlns:xlink="http://www.w3.org/1999/xlink" xml:space="preserve" overflow="hidden"><defs><clipPath id="clip0"><rect x="758" y="220" width="502" height="501"/></clipPath><clipPath id="clip1"><rect x="759" y="221" width="500" height="500"/></clipPath><clipPath id="clip2"><rect x="759" y="221" width="500" height="500"/></clipPath><clipPath id="clip3"><rect x="759" y="221" width="500" height="500"/></clipPath><clipPath id="clip4"><path d="M1111.19 529.33 1112.49 570 1113.07 588.15 1142.66 595.58 1150.55 597.58C1166.84 586.58 1164.44 558 1164.44 558L1156.5 552.29 1151.74 553.24C1151.74 553.24 1121.8 531 1111.19 529.33Z" fill-rule="nonzero" clip-rule="nonzero"/></clipPath><clipPath id="clip5"><path d="M966.19 534.58C968.19 542.67 971.91 547.04 975.06 549.37 976.671 550.645 978.547 551.544 980.55 552L1013.55 570.29C1013.55 570.29 1020.55 554.37 1018.81 535.77 1018.23 529.168 1016.45 522.728 1013.55 516.77L981.83 511.16 978.89 508.22 973.67 508.22C973.67 508.22 962.27 518.79 966.19 534.58Z" fill-rule="nonzero" clip-rule="nonzero"/></clipPath></defs><g clip-path="url(#clip0)" transform="translate(-758 -220)"><g clip-path="url(#clip1)"><g clip-path="url(#clip2)"><g clip-path="url(#clip3)"><path d="M135.47 442.4C159.68 466.72 217.38 456.16 242.07 439.75 322.24 386.5 462.86 297.67 466.26 174 467.71 121.41 420.71 95 401.16 87.37 354.16 69.09 303.09 64.53 252.72 63.52 200.1 62.52 143.77 65.7 97.08 92.52 79.39 102.68 62.78 115.52 51.63 132.84 40.29 150.36 34 171.09 32.76 191.9 30.69 225.46 40.54 258.82 54.92 289.21 69.3 319.6 88.18 347.61 105.59 376.38 116.94 395.16 115.07 421.91 135.47 442.4Z" fill="#407BFF" fill-rule="nonzero" fill-opacity="1" transform="matrix(-1 0 0 1 1259 221)"/><path d="M135.47 442.4C159.68 466.72 217.38 456.16 242.07 439.75 322.24 386.5 462.86 297.67 466.26 174 467.71 121.41 420.71 95 401.16 87.37 354.16 69.09 303.09 64.53 252.72 63.52 200.1 62.52 143.77 65.7 97.08 92.52 79.39 102.68 62.78 115.52 51.63 132.84 40.29 150.36 34 171.09 32.76 191.9 30.69 225.46 40.54 258.82 54.92 289.21 69.3 319.6 88.18 347.61 105.59 376.38 116.94 395.16 115.07 421.91 135.47 442.4Z" fill="#FFFFFF" fill-rule="nonzero" fill-opacity="0.7" transform="matrix(-1 0 0 1 1259 221)"/><path d="M50.67 55.96 449.32 55.96 449.32 73.15 50.67 73.15Z" stroke="#263238" stroke-width="1" stroke-linecap="round" stroke-linejoin="round" stroke-miterlimit="4" stroke-opacity="1" fill="none" fill-rule="nonzero" transform="matrix(-1 0 0 1 1259 221)"/><path d="M443.49 68.1C441.535 70.0501 438.369 70.0462 436.419 68.0911 434.469 66.136 434.473 62.9701 436.428 61.02 438.379 59.0733 441.538 59.0733 443.49 61.02 445.445 62.9701 445.449 66.136 443.499 68.0911 443.496 68.094 443.493 68.097 443.49 68.1Z" stroke="#263238" stroke-width="1" stroke-linecap="round" stroke-linejoin="round" stroke-miterlimit="4" stroke-opacity="1" fill="none" fill-rule="nonzero" transform="matrix(-1 0 0 1 1259 221)"/><path d="M441.77 62.74 438.12 66.38" stroke="#263238" stroke-width="1" stroke-linecap="round" stroke-linejoin="round" stroke-miterlimit="4" stroke-opacity="1" fill="none" fill-rule="nonzero" transform="matrix(-1 0 0 1 1259 221)"/><path d="M441.77 66.38 438.12 62.74" stroke="#263238" stroke-width="1" stroke-linecap="round" stroke-linejoin="round" stroke-miterlimit="4" stroke-opacity="1" fill="none" fill-rule="nonzero" transform="matrix(-1 0 0 1 1259 221)"/><path d="M429.92 64.56C429.92 67.3214 427.681 69.56 424.92 69.56 422.159 69.56 419.92 67.3214 419.92 64.56 419.92 61.7986 422.159 59.56 424.92 59.56 427.681 59.56 429.92 61.7986 429.92 64.56Z" stroke="#263238" stroke-width="1" stroke-linecap="round" stroke-linejoin="round" stroke-miterlimit="4" stroke-opacity="1" fill="none" fill-rule="nonzero" transform="matrix(-1 0 0 1 1259 221)"/><path d="M424.91 67.14 424.91 61.98 427.49 61.98 427.49 64.56 422.33 64.56 422.33 67.14 424.91 67.14Z" stroke="#263238" stroke-width="1" stroke-linecap="round" stroke-linejoin="round" stroke-miterlimit="4" stroke-opacity="1" fill="none" fill-rule="nonzero" transform="matrix(-1 0 0 1 1259 221)"/><path d="M414.89 64.56C414.89 67.3214 412.651 69.56 409.89 69.56 407.129 69.56 404.89 67.3214 404.89 64.56 404.89 61.7986 407.129 59.56 409.89 59.56 412.651 59.56 414.89 61.7986 414.89 64.56Z" stroke="#263238" stroke-width="1" stroke-linecap="round" stroke-linejoin="round" stroke-miterlimit="4" stroke-opacity="1" fill="none" fill-rule="nonzero" transform="matrix(-1 0 0 1 1259 221)"/><path d="M412.46 64.56 407.3 64.56" stroke="#263238" stroke-width="1" stroke-linecap="round" stroke-linejoin="round" stroke-miterlimit="4" stroke-opacity="1" fill="none" fill-rule="nonzero" transform="matrix(-1 0 0 1 1259 221)"/><path d="M50.02 167.23 50.02 77.9 125.04 77.9" stroke="#263238" stroke-width="1" stroke-linecap="round" stroke-linejoin="round" stroke-miterlimit="4" stroke-opacity="1" fill="none" fill-rule="nonzero" transform="matrix(-1 0 0 1 1259 221)"/><path d="M449.33 218.52 449.33 77.9 409.88 77.9" stroke="#263238" stroke-width="1" stroke-linecap="round" stroke-linejoin="round" stroke-miterlimit="4" stroke-opacity="1" fill="none" fill-rule="nonzero" transform="matrix(-1 0 0 1 1259 221)"/><path d="M449.33 228.02 449.33 259" stroke="#263238" stroke-width="1" stroke-linecap="round" stroke-linejoin="round" stroke-miterlimit="4" stroke-opacity="1" fill="none" fill-rule="nonzero" transform="matrix(-1 0 0 1 1259 221)"/><path d="M449.33 282.59 449.33 294.74" stroke="#263238" stroke-width="1" stroke-linecap="round" stroke-linejoin="round" stroke-miterlimit="4" stroke-opacity="1" fill="none" fill-rule="nonzero" transform="matrix(-1 0 0 1 1259 221)"/><path d="M49.97 175.37 49.97 189.61" stroke="#263238" stroke-width="1" stroke-linecap="round" stroke-linejoin="round" stroke-miterlimit="4" stroke-opacity="1" fill="none" fill-rule="nonzero" transform="matrix(-1 0 0 1 1259 221)"/><path d="M133.35 77.9 239.88 77.9" stroke="#263238" stroke-width="1" stroke-linecap="round" stroke-linejoin="round" stroke-miterlimit="4" stroke-opacity="1" fill="none" fill-rule="nonzero" transform="matrix(-1 0 0 1 1259 221)"/><path d="M273.94 77.9 280.72 77.9" stroke="#263238" stroke-width="1" stroke-linecap="round" stroke-linejoin="round" stroke-miterlimit="4" stroke-opacity="1" fill="none" fill-rule="nonzero" transform="matrix(-1 0 0 1 1259 221)"/><path d="M362.46 386.9 356.06 386.9C354.009 386.843 352.278 385.358 351.91 383.34L350.36 373.6" stroke="#263238" stroke-width="1" stroke-linecap="round" stroke-linejoin="round" stroke-miterlimit="4" stroke-opacity="1" fill="none" fill-rule="nonzero" transform="matrix(-1 0 0 1 1259 221)"/><path d="M385.41 373.6 386.97 383.34C387.28 384.968 386.211 386.538 384.583 386.848 384.381 386.886 384.176 386.904 383.97 386.9L365.63 386.9" stroke="#263238" stroke-width="1" stroke-linecap="round" stroke-linejoin="round" stroke-miterlimit="4" stroke-opacity="1" fill="none" fill-rule="nonzero" transform="matrix(-1 0 0 1 1259 221)"/><path d="M372.75 360.29 379.75 360.29C381.797 360.351 383.523 361.835 383.89 363.85L384.83 369.76" stroke="#263238" stroke-width="1" stroke-linecap="round" stroke-linejoin="round" stroke-miterlimit="4" stroke-opacity="1" fill="none" fill-rule="nonzero" transform="matrix(-1 0 0 1 1259 221)"/><path d="M367.89 360.29 370.1 360.29" stroke="#263238" stroke-width="1" stroke-linecap="round" stroke-linejoin="round" stroke-miterlimit="4" stroke-opacity="1" fill="none" fill-rule="nonzero" transform="matrix(-1 0 0 1 1259 221)"/><path d="M349.93 370.89 348.8 363.89C348.49 362.262 349.559 360.692 351.187 360.382 351.389 360.344 351.594 360.326 351.8 360.33L363.38 360.33" stroke="#263238" stroke-width="1" stroke-linecap="round" stroke-linejoin="round" stroke-miterlimit="4" stroke-opacity="1" fill="none" fill-rule="nonzero" transform="matrix(-1 0 0 1 1259 221)"/><path d="M375.78 354.88 373.21 354.88C372.769 354.891 372.377 355.162 372.21 355.57L371.35 357.78 356.06 357.78C354.526 357.78 353.163 358.757 352.67 360.21" stroke="#263238" stroke-width="1" stroke-linecap="round" stroke-linejoin="round" stroke-miterlimit="4" stroke-opacity="1" fill="none" fill-rule="nonzero" transform="matrix(-1 0 0 1 1259 221)"/><path d="M387.54 361.36C387.539 359.488 386.088 357.936 384.22 357.81L383.35 355.57C383.183 355.162 382.791 354.891 382.35 354.88L377.5 354.88" stroke="#263238" stroke-width="1" stroke-linecap="round" stroke-linejoin="round" stroke-miterlimit="4" stroke-opacity="1" fill="none" fill-rule="nonzero" transform="matrix(-1 0 0 1 1259 221)"/><path d="M384 386.9C385.972 386.906 387.574 385.312 387.58 383.34 387.58 383.337 387.58 383.333 387.58 383.33L387.58 365" stroke="#263238" stroke-width="1" stroke-linecap="round" stroke-linejoin="round" stroke-miterlimit="4" stroke-opacity="1" fill="none" fill-rule="nonzero" transform="matrix(-1 0 0 1 1259 221)"/><path d="M298.45 377.16 296.33 363.85C296.02 362.222 297.089 360.652 298.717 360.342 298.919 360.304 299.124 360.286 299.33 360.29L303.93 360.29" stroke="#263238" stroke-width="1" stroke-linecap="round" stroke-linejoin="round" stroke-miterlimit="4" stroke-opacity="1" fill="none" fill-rule="nonzero" transform="matrix(-1 0 0 1 1259 221)"/><path d="M319.49 386.9 303.58 386.9C301.531 386.84 299.801 385.356 299.43 383.34L298.94 380.25" stroke="#263238" stroke-width="1" stroke-linecap="round" stroke-linejoin="round" stroke-miterlimit="4" stroke-opacity="1" fill="none" fill-rule="nonzero" transform="matrix(-1 0 0 1 1259 221)"/><path d="M327.14 386.9 321.86 386.9" stroke="#263238" stroke-width="1" stroke-linecap="round" stroke-linejoin="round" stroke-miterlimit="4" stroke-opacity="1" fill="none" fill-rule="nonzero" transform="matrix(-1 0 0 1 1259 221)"/><path d="M308 360.29 327.28 360.29C329.327 360.351 331.053 361.835 331.42 363.85L334.53 383.34C334.84 384.968 333.771 386.538 332.143 386.848 331.941 386.886 331.736 386.904 331.53 386.9" stroke="#263238" stroke-width="1" stroke-linecap="round" stroke-linejoin="round" stroke-miterlimit="4" stroke-opacity="1" fill="none" fill-rule="nonzero" transform="matrix(-1 0 0 1 1259 221)"/><path d="M312.5 357.78 303.58 357.78C302.047 357.783 300.685 358.759 300.19 360.21" stroke="#263238" stroke-width="1" stroke-linecap="round" stroke-linejoin="round" stroke-miterlimit="4" stroke-opacity="1" fill="none" fill-rule="nonzero" transform="matrix(-1 0 0 1 1259 221)"/><path d="M335.06 373.6 335.06 361.36C335.059 359.488 333.608 357.936 331.74 357.81L330.87 355.57C330.708 355.158 330.312 354.886 329.87 354.88L320.74 354.88C320.297 354.886 319.902 355.158 319.74 355.57L318.88 357.78 315.43 357.78" stroke="#263238" stroke-width="1" stroke-linecap="round" stroke-linejoin="round" stroke-miterlimit="4" stroke-opacity="1" fill="none" fill-rule="nonzero" transform="matrix(-1 0 0 1 1259 221)"/><path d="M331.48 386.9C333.452 386.906 335.054 385.312 335.06 383.34 335.06 383.337 335.06 383.333 335.06 383.33L335.06 376" stroke="#263238" stroke-width="1" stroke-linecap="round" stroke-linejoin="round" stroke-miterlimit="4" stroke-opacity="1" fill="none" fill-rule="nonzero" transform="matrix(-1 0 0 1 1259 221)"/><path d="M310 338.71 303.59 338.71C301.541 338.65 299.811 337.166 299.44 335.15L297.89 325.4" stroke="#263238" stroke-width="1" stroke-linecap="round" stroke-linejoin="round" stroke-miterlimit="4" stroke-opacity="1" fill="none" fill-rule="nonzero" transform="matrix(-1 0 0 1 1259 221)"/><path d="M332.94 325.4 334.49 335.15C334.8 336.778 333.731 338.348 332.103 338.658 331.901 338.696 331.696 338.714 331.49 338.71L313.15 338.71" stroke="#263238" stroke-width="1" stroke-linecap="round" stroke-linejoin="round" stroke-miterlimit="4" stroke-opacity="1" fill="none" fill-rule="nonzero" transform="matrix(-1 0 0 1 1259 221)"/><path d="M320.27 312.09 327.27 312.09C329.319 312.156 331.043 313.643 331.41 315.66L332.36 321.56" stroke="#263238" stroke-width="1" stroke-linecap="round" stroke-linejoin="round" stroke-miterlimit="4" stroke-opacity="1" fill="none" fill-rule="nonzero" transform="matrix(-1 0 0 1 1259 221)"/><path d="M315.41 312.09 317.63 312.09" stroke="#263238" stroke-width="1" stroke-linecap="round" stroke-linejoin="round" stroke-miterlimit="4" stroke-opacity="1" fill="none" fill-rule="nonzero" transform="matrix(-1 0 0 1 1259 221)"/><path d="M297.45 322.7 296.33 315.7C296.015 314.073 297.078 312.499 298.705 312.184 298.911 312.144 299.12 312.126 299.33 312.13L310.91 312.13" stroke="#263238" stroke-width="1" stroke-linecap="round" stroke-linejoin="round" stroke-miterlimit="4" stroke-opacity="1" fill="none" fill-rule="nonzero" transform="matrix(-1 0 0 1 1259 221)"/><path d="M323.31 306.69 320.73 306.69C320.286 306.69 319.888 306.965 319.73 307.38L318.87 309.59 303.58 309.59C302.047 309.593 300.685 310.569 300.19 312.02" stroke="#263238" stroke-width="1" stroke-linecap="round" stroke-linejoin="round" stroke-miterlimit="4" stroke-opacity="1" fill="none" fill-rule="nonzero" transform="matrix(-1 0 0 1 1259 221)"/><path d="M335.06 313.17C335.059 311.298 333.608 309.746 331.74 309.62L330.87 307.38C330.712 306.965 330.314 306.69 329.87 306.69L325 306.69" stroke="#263238" stroke-width="1" stroke-linecap="round" stroke-linejoin="round" stroke-miterlimit="4" stroke-opacity="1" fill="none" fill-rule="nonzero" transform="matrix(-1 0 0 1 1259 221)"/><path d="M331.48 338.71C333.452 338.716 335.054 337.122 335.06 335.15 335.06 335.147 335.06 335.143 335.06 335.14L335.06 316.83" stroke="#263238" stroke-width="1" stroke-linecap="round" stroke-linejoin="round" stroke-miterlimit="4" stroke-opacity="1" fill="none" fill-rule="nonzero" transform="matrix(-1 0 0 1 1259 221)"/><path d="M350.93 329 348.8 315.69C348.485 314.063 349.548 312.489 351.175 312.174 351.381 312.134 351.59 312.116 351.8 312.12L356.4 312.12" stroke="#263238" stroke-width="1" stroke-linecap="round" stroke-linejoin="round" stroke-miterlimit="4" stroke-opacity="1" fill="none" fill-rule="nonzero" transform="matrix(-1 0 0 1 1259 221)"/><path d="M372 338.71 356.06 338.71C354.009 338.653 352.278 337.168 351.91 335.15L351.42 332.06" stroke="#263238" stroke-width="1" stroke-linecap="round" stroke-linejoin="round" stroke-miterlimit="4" stroke-opacity="1" fill="none" fill-rule="nonzero" transform="matrix(-1 0 0 1 1259 221)"/><path d="M379.62 338.71 374.34 338.71" stroke="#263238" stroke-width="1" stroke-linecap="round" stroke-linejoin="round" stroke-miterlimit="4" stroke-opacity="1" fill="none" fill-rule="nonzero" transform="matrix(-1 0 0 1 1259 221)"/><path d="M360.44 312.09 379.72 312.09C381.769 312.156 383.493 313.643 383.86 315.66L387 335.15C387.31 336.778 386.241 338.348 384.613 338.658 384.411 338.696 384.206 338.714 384 338.71" stroke="#263238" stroke-width="1" stroke-linecap="round" stroke-linejoin="round" stroke-miterlimit="4" stroke-opacity="1" fill="none" fill-rule="nonzero" transform="matrix(-1 0 0 1 1259 221)"/><path d="M365 309.59 356.08 309.59C354.546 309.59 353.183 310.567 352.69 312.02" stroke="#263238" stroke-width="1" stroke-linecap="round" stroke-linejoin="round" stroke-miterlimit="4" stroke-opacity="1" fill="none" fill-rule="nonzero" transform="matrix(-1 0 0 1 1259 221)"/><path d="M387.54 325.4 387.54 313.17C387.539 311.298 386.088 309.746 384.22 309.62L383.35 307.38C383.185 306.97 382.792 306.698 382.35 306.69L373.23 306.69C372.788 306.698 372.395 306.97 372.23 307.38L371.37 309.59 367.93 309.59" stroke="#263238" stroke-width="1" stroke-linecap="round" stroke-linejoin="round" stroke-miterlimit="4" stroke-opacity="1" fill="none" fill-rule="nonzero" transform="matrix(-1 0 0 1 1259 221)"/><path d="M384 338.71C385.972 338.716 387.574 337.122 387.58 335.15 387.58 335.147 387.58 335.143 387.58 335.14L387.58 327.77" stroke="#263238" stroke-width="1" stroke-linecap="round" stroke-linejoin="round" stroke-miterlimit="4" stroke-opacity="1" fill="none" fill-rule="nonzero" transform="matrix(-1 0 0 1 1259 221)"/><path d="M91.93 266.69 64 266.69C61.9489 266.625 60.2208 265.138 59.85 263.12L56.75 243.63C56.4405 242.002 57.509 240.432 59.1367 240.122 59.3388 240.084 59.5443 240.066 59.75 240.07L87.69 240.07C89.7371 240.131 91.4628 241.615 91.83 243.63L94.94 263.12C95.2552 264.747 94.1921 266.321 92.5655 266.636 92.3562 266.676 92.1432 266.695 91.93 266.69Z" stroke="#263238" stroke-width="1" stroke-linecap="round" stroke-linejoin="round" stroke-miterlimit="4" stroke-opacity="1" fill="none" fill-rule="nonzero" transform="matrix(-1 0 0 1 1259 221)"/><path d="M91.93 266.69C93.9072 266.69 95.51 265.087 95.51 263.11L95.51 241.11C95.509 239.238 94.058 237.686 92.19 237.56L91.32 235.32C91.1576 234.908 90.7625 234.636 90.32 234.63L81.18 234.63C80.7375 234.636 80.3424 234.908 80.18 235.32L79.32 237.53 64 237.53C62.4676 237.552 61.118 238.544 60.64 240" stroke="#263238" stroke-width="1" stroke-linecap="round" stroke-linejoin="round" stroke-miterlimit="4" stroke-opacity="1" fill="none" fill-rule="nonzero" transform="matrix(-1 0 0 1 1259 221)"/><path d="M304.2 338.56C304.2 341.498 301.818 343.88 298.88 343.88 295.942 343.88 293.56 341.498 293.56 338.56 293.56 335.622 295.942 333.24 298.88 333.24 301.818 333.24 304.2 335.622 304.2 338.56Z" stroke="#263238" stroke-width="1" stroke-linecap="round" stroke-linejoin="round" stroke-miterlimit="4" stroke-opacity="1" fill="#FFFFFF" fill-rule="nonzero" fill-opacity="1" transform="matrix(-1 0 0 1 1259 221)"/><path d="M297.88 336.56C298.294 336.615 298.679 336.34 298.76 335.93L299.29 335.93 299.29 341 298.5 341 298.5 337.14 297.88 337.14Z" fill="#263238" fill-rule="nonzero" fill-opacity="1" transform="matrix(-1 0 0 1 1259 221)"/><path d="M360.44 338.56C360.446 341.498 358.068 343.884 355.13 343.89 352.192 343.896 349.806 341.518 349.8 338.58 349.794 335.642 352.172 333.256 355.11 333.25 355.113 333.25 355.117 333.25 355.12 333.25 358.054 333.25 360.434 335.626 360.44 338.56Z" stroke="#263238" stroke-width="1" stroke-linecap="round" stroke-linejoin="round" stroke-miterlimit="4" stroke-opacity="1" fill="#FFFFFF" fill-rule="nonzero" fill-opacity="1" transform="matrix(-1 0 0 1 1259 221)"/><path d="M355.14 336.59C354.89 336.59 354.73 336.73 354.73 337.09L354.73 337.63 354 337.63 354 337.14C354 336.33 354.4 335.87 355.19 335.87 355.98 335.87 356.37 336.33 356.37 337.14 356.333 337.918 355.97 338.643 355.37 339.14 354.9 339.64 354.77 339.88 354.77 340.14L354.77 340.25 356.28 340.25 356.28 341 354 341 354 340.38C354.021 339.752 354.308 339.163 354.79 338.76 355.27 338.372 355.558 337.796 355.58 337.18 355.56 336.72 355.4 336.59 355.14 336.59Z" fill="#263238" fill-rule="nonzero" fill-opacity="1" transform="matrix(-1 0 0 1 1259 221)"/><path d="M304.2 386.9C304.206 389.838 301.828 392.224 298.89 392.23 295.952 392.236 293.566 389.858 293.56 386.92 293.555 383.982 295.932 381.596 298.87 381.59 298.873 381.59 298.877 381.59 298.88 381.59 301.814 381.59 304.194 383.966 304.2 386.9Z" stroke="#263238" stroke-width="1" stroke-linecap="round" stroke-linejoin="round" stroke-miterlimit="4" stroke-opacity="1" fill="#FFFFFF" fill-rule="nonzero" fill-opacity="1" transform="matrix(-1 0 0 1 1259 221)"/><path d="M299.27 385.51C299.27 385.06 299.11 384.93 298.86 384.93 298.61 384.93 298.45 385.07 298.45 385.43L298.45 385.76 297.7 385.76 297.7 385.48C297.7 384.67 298.1 384.21 298.88 384.21 299.491 384.159 300.027 384.613 300.078 385.224 300.085 385.309 300.083 385.395 300.07 385.48L300.07 385.61C300.112 386.028 299.888 386.427 299.51 386.61 299.911 386.8 300.139 387.232 300.07 387.67L300.07 388.07C300.16 388.676 299.742 389.241 299.136 389.332 299.051 389.344 298.965 389.347 298.88 389.34 298.1 389.34 297.7 388.87 297.7 388.07L297.7 387.65 298.45 387.65 298.45 388.12C298.45 388.48 298.61 388.62 298.86 388.62 299.11 388.62 299.27 388.49 299.27 388.04L299.27 387.65C299.27 387.18 299.11 387 298.75 387L298.48 387 298.48 386.28 298.79 386.28C299.09 386.28 299.27 386.15 299.27 385.74Z" fill="#263238" fill-rule="nonzero" fill-opacity="1" transform="matrix(-1 0 0 1 1259 221)"/><path d="M360.44 386.9C360.446 389.838 358.068 392.224 355.13 392.23 352.192 392.236 349.806 389.858 349.8 386.92 349.794 383.982 352.172 381.596 355.11 381.59 355.113 381.59 355.117 381.59 355.12 381.59 358.054 381.59 360.434 383.966 360.44 386.9Z" stroke="#263238" stroke-width="1" stroke-linecap="round" stroke-linejoin="round" stroke-miterlimit="4" stroke-opacity="1" fill="#FFFFFF" fill-rule="nonzero" fill-opacity="1" transform="matrix(-1 0 0 1 1259 221)"/><path d="M353.79 387.69 355.24 384.27 356.11 384.27 356.11 387.69 356.48 387.69 356.48 388.41 356.11 388.41 356.11 389.33 355.31 389.33 355.31 388.41 353.79 388.41ZM355.31 387.69 355.31 385.82 354.54 387.69Z" fill="#263238" fill-rule="nonzero" fill-opacity="1" transform="matrix(-1 0 0 1 1259 221)"/><path d="M393.86 229.66 413.05 229.66" stroke="#263238" stroke-width="1" stroke-linecap="round" stroke-linejoin="round" stroke-miterlimit="4" stroke-opacity="1" fill="none" fill-rule="nonzero" transform="matrix(-1 0 0 1 1259 221)"/><path d="M386.21 242.6 386.21 229.66 390.69 229.66" stroke="#263238" stroke-width="1" stroke-linecap="round" stroke-linejoin="round" stroke-miterlimit="4" stroke-opacity="1" fill="none" fill-rule="nonzero" transform="matrix(-1 0 0 1 1259 221)"/><path d="M390.03 272.25 386.21 272.25 386.21 244.95" stroke="#263238" stroke-width="1" stroke-linecap="round" stroke-linejoin="round" stroke-miterlimit="4" stroke-opacity="1" fill="none" fill-rule="nonzero" transform="matrix(-1 0 0 1 1259 221)"/><path d="M397.02 272.24 392.21 272.24" stroke="#263238" stroke-width="1" stroke-linecap="round" stroke-linejoin="round" stroke-miterlimit="4" stroke-opacity="1" fill="none" fill-rule="nonzero" transform="matrix(-1 0 0 1 1259 221)"/><path d="M422.39 271.56 422.39 272.25 402.03 272.25" stroke="#263238" stroke-width="1" stroke-linecap="round" stroke-linejoin="round" stroke-miterlimit="4" stroke-opacity="1" fill="none" fill-rule="nonzero" transform="matrix(-1 0 0 1 1259 221)"/><path d="M422.39 238.99 422.39 268.98" stroke="#263238" stroke-width="1" stroke-linecap="round" stroke-linejoin="round" stroke-miterlimit="4" stroke-opacity="1" fill="none" fill-rule="nonzero" transform="matrix(-1 0 0 1 1259 221)"/><path d="M428.39 232.99 428.39 266.25 392.21 266.25 392.21 223.66 419.05 223.66 425.33 229.94 428.39 232.99Z" stroke="#263238" stroke-width="1" stroke-linecap="round" stroke-linejoin="round" stroke-miterlimit="4" stroke-opacity="1" fill="#FFFFFF" fill-rule="nonzero" fill-opacity="1" transform="matrix(-1 0 0 1 1259 221)"/><path d="M428.39 232.99 419.05 232.99 419.05 223.66 425.33 229.94 428.39 232.99Z" stroke="#263238" stroke-width="1" stroke-linecap="round" stroke-linejoin="round" stroke-miterlimit="4" stroke-opacity="1" fill="#FFFFFF" fill-rule="nonzero" fill-opacity="1" transform="matrix(-1 0 0 1 1259 221)"/><path d="M410.3 240.4 410.3 249.5" stroke="#263238" stroke-width="1" stroke-linecap="round" stroke-linejoin="round" stroke-miterlimit="4" stroke-opacity="1" fill="none" fill-rule="nonzero" transform="matrix(-1 0 0 1 1259 221)"/><path d="M414.85 244.95 405.75 244.95" stroke="#263238" stroke-width="1" stroke-linecap="round" stroke-linejoin="round" stroke-miterlimit="4" stroke-opacity="1" fill="none" fill-rule="nonzero" transform="matrix(-1 0 0 1 1259 221)"/><path d="M171.3 152.36 171.3 206.17 112.75 206.17 112.75 137.25 156.19 137.25 166.35 147.41 171.3 152.36Z" stroke="#263238" stroke-width="1" stroke-linecap="round" stroke-linejoin="round" stroke-miterlimit="4" stroke-opacity="1" fill="#407BFF" fill-rule="nonzero" fill-opacity="1" transform="matrix(-1 0 0 1 1259 221)"/><path d="M125.77 147.61 163.74 147.61" stroke="#263238" stroke-width="1" stroke-linecap="round" stroke-linejoin="round" stroke-miterlimit="4" stroke-opacity="1" fill="none" fill-rule="nonzero" transform="matrix(-1 0 0 1 1259 221)"/><path d="M120.43 154.5 163.74 154.5" stroke="#263238" stroke-width="1" stroke-linecap="round" stroke-linejoin="round" stroke-miterlimit="4" stroke-opacity="1" fill="none" fill-rule="nonzero" transform="matrix(-1 0 0 1 1259 221)"/><path d="M120.43 161.4 163.74 161.4" stroke="#263238" stroke-width="1" stroke-linecap="round" stroke-linejoin="round" stroke-miterlimit="4" stroke-opacity="1" fill="none" fill-rule="nonzero" transform="matrix(-1 0 0 1 1259 221)"/><path d="M120.43 168.29 163.74 168.29" stroke="#263238" stroke-width="1" stroke-linecap="round" stroke-linejoin="round" stroke-miterlimit="4" stroke-opacity="1" fill="none" fill-rule="nonzero" transform="matrix(-1 0 0 1 1259 221)"/><path d="M120.43 175.19 163.74 175.19" stroke="#263238" stroke-width="1" stroke-linecap="round" stroke-linejoin="round" stroke-miterlimit="4" stroke-opacity="1" fill="none" fill-rule="nonzero" transform="matrix(-1 0 0 1 1259 221)"/><path d="M120.43 182.08 163.74 182.08" stroke="#263238" stroke-width="1" stroke-linecap="round" stroke-linejoin="round" stroke-miterlimit="4" stroke-opacity="1" fill="none" fill-rule="nonzero" transform="matrix(-1 0 0 1 1259 221)"/><path d="M120.43 188.97 163.74 188.97" stroke="#263238" stroke-width="1" stroke-linecap="round" stroke-linejoin="round" stroke-miterlimit="4" stroke-opacity="1" fill="none" fill-rule="nonzero" transform="matrix(-1 0 0 1 1259 221)"/><path d="M120.43 195.87 158.4 195.87" stroke="#263238" stroke-width="1" stroke-linecap="round" stroke-linejoin="round" stroke-miterlimit="4" stroke-opacity="1" fill="none" fill-rule="nonzero" transform="matrix(-1 0 0 1 1259 221)"/><path d="M171.3 152.36 156.19 152.36 156.19 137.25 166.35 147.41 171.3 152.36Z" stroke="#263238" stroke-width="1" stroke-linecap="round" stroke-linejoin="round" stroke-miterlimit="4" stroke-opacity="1" fill="#407BFF" fill-rule="nonzero" fill-opacity="1" transform="matrix(-1 0 0 1 1259 221)"/><path d="M363.08 135.26 363.08 189.07 304.54 189.07 304.54 120.15 347.98 120.15 358.13 130.31 363.08 135.26Z" stroke="#263238" stroke-width="1" stroke-linecap="round" stroke-linejoin="round" stroke-miterlimit="4" stroke-opacity="1" fill="#407BFF" fill-rule="nonzero" fill-opacity="1" transform="matrix(-1 0 0 1 1259 221)"/><path d="M317.56 130.51 355.53 130.51" stroke="#263238" stroke-width="1" stroke-linecap="round" stroke-linejoin="round" stroke-miterlimit="4" stroke-opacity="1" fill="none" fill-rule="nonzero" transform="matrix(-1 0 0 1 1259 221)"/><path d="M312.21 137.41 355.53 137.41" stroke="#263238" stroke-width="1" stroke-linecap="round" stroke-linejoin="round" stroke-miterlimit="4" stroke-opacity="1" fill="none" fill-rule="nonzero" transform="matrix(-1 0 0 1 1259 221)"/><path d="M312.21 144.3 355.53 144.3" stroke="#263238" stroke-width="1" stroke-linecap="round" stroke-linejoin="round" stroke-miterlimit="4" stroke-opacity="1" fill="none" fill-rule="nonzero" transform="matrix(-1 0 0 1 1259 221)"/><path d="M312.21 151.19 355.53 151.19" stroke="#263238" stroke-width="1" stroke-linecap="round" stroke-linejoin="round" stroke-miterlimit="4" stroke-opacity="1" fill="none" fill-rule="nonzero" transform="matrix(-1 0 0 1 1259 221)"/><path d="M312.21 158.09 355.53 158.09" stroke="#263238" stroke-width="1" stroke-linecap="round" stroke-linejoin="round" stroke-miterlimit="4" stroke-opacity="1" fill="none" fill-rule="nonzero" transform="matrix(-1 0 0 1 1259 221)"/><path d="M312.21 164.98 355.53 164.98" stroke="#263238" stroke-width="1" stroke-linecap="round" stroke-linejoin="round" stroke-miterlimit="4" stroke-opacity="1" fill="none" fill-rule="nonzero" transform="matrix(-1 0 0 1 1259 221)"/><path d="M312.21 171.88 355.53 171.88" stroke="#263238" stroke-width="1" stroke-linecap="round" stroke-linejoin="round" stroke-miterlimit="4" stroke-opacity="1" fill="none" fill-rule="nonzero" transform="matrix(-1 0 0 1 1259 221)"/><path d="M312.21 178.77 350.19 178.77" stroke="#263238" stroke-width="1" stroke-linecap="round" stroke-linejoin="round" stroke-miterlimit="4" stroke-opacity="1" fill="none" fill-rule="nonzero" transform="matrix(-1 0 0 1 1259 221)"/><path d="M363.08 135.26 347.98 135.26 347.98 120.15 358.13 130.31 363.08 135.26Z" stroke="#263238" stroke-width="1" stroke-linecap="round" stroke-linejoin="round" stroke-miterlimit="4" stroke-opacity="1" fill="#407BFF" fill-rule="nonzero" fill-opacity="1" transform="matrix(-1 0 0 1 1259 221)"/><path d="M369.41 191.73 369.41 197.73 363.41 197.73" stroke="#263238" stroke-width="1" stroke-linecap="round" stroke-linejoin="round" stroke-miterlimit="4" stroke-opacity="1" fill="none" fill-rule="nonzero" transform="matrix(-1 0 0 1 1259 221)"/><path d="M351.57 197.73 310.13 197.73" stroke="#263238" stroke-width="1" stroke-linecap="round" stroke-linejoin="round" stroke-miterlimit="4" stroke-dasharray="11.8418 11.8418" stroke-opacity="1" fill="none" fill-rule="nonzero" transform="matrix(-1 0 0 1 1259 221)"/><path d="M304.21 197.73 298.21 197.73 298.21 191.73" stroke="#263238" stroke-width="1" stroke-linecap="round" stroke-linejoin="round" stroke-miterlimit="4" stroke-opacity="1" fill="none" fill-rule="nonzero" transform="matrix(-1 0 0 1 1259 221)"/><path d="M298.21 181.12 298.21 122.8" stroke="#263238" stroke-width="1" stroke-linecap="round" stroke-linejoin="round" stroke-miterlimit="4" stroke-dasharray="10.6042 10.6042" stroke-opacity="1" fill="none" fill-rule="nonzero" transform="matrix(-1 0 0 1 1259 221)"/><path d="M298.21 117.5 298.21 111.5 304.21 111.5" stroke="#263238" stroke-width="1" stroke-linecap="round" stroke-linejoin="round" stroke-miterlimit="4" stroke-opacity="1" fill="none" fill-rule="nonzero" transform="matrix(-1 0 0 1 1259 221)"/><path d="M316.05 111.5 357.49 111.5" stroke="#263238" stroke-width="1" stroke-linecap="round" stroke-linejoin="round" stroke-miterlimit="4" stroke-dasharray="11.8418 11.8418" stroke-opacity="1" fill="none" fill-rule="nonzero" transform="matrix(-1 0 0 1 1259 221)"/><path d="M363.41 111.5 369.41 111.5 369.41 117.5" stroke="#263238" stroke-width="1" stroke-linecap="round" stroke-linejoin="round" stroke-miterlimit="4" stroke-opacity="1" fill="none" fill-rule="nonzero" transform="matrix(-1 0 0 1 1259 221)"/><path d="M369.41 128.1 369.41 186.42" stroke="#263238" stroke-width="1" stroke-linecap="round" stroke-linejoin="round" stroke-miterlimit="4" stroke-dasharray="10.6042 10.6042" stroke-opacity="1" fill="none" fill-rule="nonzero" transform="matrix(-1 0 0 1 1259 221)"/><path d="M178.45 173.33 285.09 156.57" stroke="#263238" stroke-width="1" stroke-linecap="round" stroke-linejoin="round" stroke-miterlimit="4" stroke-dasharray="12 12" stroke-opacity="1" fill="none" fill-rule="nonzero" transform="matrix(-1 0 0 1 1259 221)"/><path d="M287.2 156.07 283.94 154.82 284.72 158.52 287.2 156.07Z" fill="#263238" fill-rule="nonzero" fill-opacity="1" transform="matrix(-1 0 0 1 1259 221)"/><path d="M179.54 173.33C179.54 173.932 179.052 174.42 178.45 174.42 177.848 174.42 177.36 173.932 177.36 173.33 177.36 172.728 177.848 172.24 178.45 172.24 179.046 172.234 179.534 172.713 179.54 173.31 179.54 173.317 179.54 173.323 179.54 173.33Z" fill="#263238" fill-rule="nonzero" fill-opacity="1" transform="matrix(-1 0 0 1 1259 221)"/><path d="M375.93 114.1C375.93 118.977 371.977 122.93 367.1 122.93 362.223 122.93 358.27 118.977 358.27 114.1 358.27 109.223 362.223 105.27 367.1 105.27 371.977 105.27 375.93 109.223 375.93 114.1Z" stroke="#263238" stroke-width="1" stroke-linecap="round" stroke-linejoin="round" stroke-miterlimit="4" stroke-opacity="1" fill="#FFFFFF" fill-rule="nonzero" fill-opacity="1" transform="matrix(-0.707107 -0.707107 -0.707107 0.707107 1232.16 514)"/><path d="M367.1 109.55 367.1 118.65" stroke="#263238" stroke-width="1" stroke-linecap="round" stroke-linejoin="round" stroke-miterlimit="4" stroke-opacity="1" fill="none" fill-rule="nonzero" transform="matrix(-1 0 0 1 1259 221)"/><path d="M371.65 114.1 362.56 114.1" stroke="#263238" stroke-width="1" stroke-linecap="round" stroke-linejoin="round" stroke-miterlimit="4" stroke-opacity="1" fill="none" fill-rule="nonzero" transform="matrix(-1 0 0 1 1259 221)"/><path d="M219.32 258.46C218.14 258.46 215.84 255.22 214.5 253.16 214.5 257.42 214.5 268.3 216.39 267.6 218.67 266.73 221.07 258.46 219.32 258.46Z" stroke="#263238" stroke-width="1" stroke-linecap="round" stroke-linejoin="round" stroke-miterlimit="4" stroke-opacity="1" fill="#FFFFFF" fill-rule="nonzero" fill-opacity="1" transform="matrix(-1 0 0 1 1259 221)"/><path d="M214.16 288.31C213.43 289.15 212.535 289.831 211.53 290.31 208.61 291.81 204.21 292.52 199.16 292.31 178.8 291.53 147.8 276.05 159.97 237.8 167.43 214.32 201.39 222.14 210.06 231.08 213.06 234.21 215.63 240.79 217.25 248.51 217.84 251.33 216.66 254.3 216.99 257.31 217.28 260.03 219.11 262.78 219.16 265.49 219.33 275 217.87 283.78 214.16 288.31Z" stroke="#263238" stroke-width="1" stroke-linecap="round" stroke-linejoin="round" stroke-miterlimit="4" stroke-opacity="1" fill="#FFFFFF" fill-rule="nonzero" fill-opacity="1" transform="matrix(-1 0 0 1 1259 221)"/><path d="M211.53 290.32C208.61 291.82 204.21 292.53 199.16 292.32 200.219 290.566 201.367 288.867 202.6 287.23 202.6 287.23 209.32 288.24 211.53 290.32Z" fill="#263238" fill-rule="nonzero" fill-opacity="1" transform="matrix(-1 0 0 1 1259 221)"/><path d="M205.35 287.09C205.35 287.09 203.5 310.25 206.55 315.47 209.6 320.69 180.21 325.92 168.45 315.47 168.45 315.47 175.17 298.23 174.52 281.58" stroke="#263238" stroke-width="1" stroke-linecap="round" stroke-linejoin="round" stroke-miterlimit="4" stroke-opacity="1" fill="#FFFFFF" fill-rule="nonzero" fill-opacity="1" transform="matrix(-1 0 0 1 1259 221)"/><path d="M210.06 242.88C210.06 242.88 219.21 239 216.12 226.16 211.77 208.05 201.97 219.24 198.71 216.54 193.64 212.36 183.91 208.54 176.07 215.15 168.23 221.76 163.45 222.5 153.44 231.93 143.43 241.36 143.44 262.5 153.44 270.86 163.44 279.22 166.06 288.02 175.64 290.81 185.22 293.6 199.5 289.81 202.37 282.58 204.022 278.681 204.993 274.527 205.24 270.3 205.24 270.3 213.55 255.62 210.06 242.88Z" fill="#263238" fill-rule="nonzero" fill-opacity="1" transform="matrix(-1 0 0 1 1259 221)"/><path d="M209.38 265.41C209.38 265.41 207.31 256.41 206 255.72 204.69 255.03 200.67 262.86 200.78 265.98 200.89 269.1 205.13 274.66 207.2 275.98 209.27 277.3 209.99 273.59 210.06 273.15" stroke="#263238" stroke-width="1" stroke-linecap="round" stroke-linejoin="round" stroke-miterlimit="4" stroke-opacity="1" fill="#FFFFFF" fill-rule="nonzero" fill-opacity="1" transform="matrix(-1 0 0 1 1259 221)"/><path d="M206.44 260.73C206.44 260.73 204.8 266.07 207.2 270.41" stroke="#263238" stroke-width="1" stroke-linecap="round" stroke-linejoin="round" stroke-miterlimit="4" stroke-opacity="1" fill="none" fill-rule="nonzero" transform="matrix(-1 0 0 1 1259 221)"/><path d="M208.73 232.57C208.49 235.43 207.73 238.86 205.35 240.7" stroke="#FFFFFF" stroke-width="1" stroke-linecap="round" stroke-linejoin="round" stroke-miterlimit="4" stroke-opacity="0.2" fill="none" fill-rule="nonzero" transform="matrix(-1 0 0 1 1259 221)"/><path d="M192.71 221.32C195.92 219.87 200.36 218.12 203.9 219.04 208.28 220.19 208.79 226.42 208.83 230.15" stroke="#FFFFFF" stroke-width="1" stroke-linecap="round" stroke-linejoin="round" stroke-miterlimit="4" stroke-opacity="0.2" fill="none" fill-rule="nonzero" transform="matrix(-1 0 0 1 1259 221)"/><path d="M199.51 248.59C199.024 250.174 198.381 251.705 197.59 253.16" stroke="#FFFFFF" stroke-width="1" stroke-linecap="round" stroke-linejoin="round" stroke-miterlimit="4" stroke-opacity="0.2" fill="none" fill-rule="nonzero" transform="matrix(-1 0 0 1 1259 221)"/><path d="M184 228.7C188 227.57 192.93 226.8 196.38 229.63 200.87 233.32 201.18 241.13 200.12 246.34" stroke="#FFFFFF" stroke-width="1" stroke-linecap="round" stroke-linejoin="round" stroke-miterlimit="4" stroke-opacity="0.2" fill="none" fill-rule="nonzero" transform="matrix(-1 0 0 1 1259 221)"/><path d="M187.94 243.28C191.39 249.6 191.33 262.51 183.35 265.57" stroke="#FFFFFF" stroke-width="1" stroke-linecap="round" stroke-linejoin="round" stroke-miterlimit="4" stroke-opacity="0.2" fill="none" fill-rule="nonzero" transform="matrix(-1 0 0 1 1259 221)"/><path d="M176.63 236.09C180.03 234.02 184.93 238.96 186.7 241.34" stroke="#FFFFFF" stroke-width="1" stroke-linecap="round" stroke-linejoin="round" stroke-miterlimit="4" stroke-opacity="0.2" fill="none" fill-rule="nonzero" transform="matrix(-1 0 0 1 1259 221)"/><path d="M185.54 216.68C184.324 215.079 182.268 214.362 180.32 214.86" stroke="#FFFFFF" stroke-width="1" stroke-linecap="round" stroke-linejoin="round" stroke-miterlimit="4" stroke-opacity="0.2" fill="none" fill-rule="nonzero" transform="matrix(-1 0 0 1 1259 221)"/><path d="M188.46 222.54C188.077 221.145 187.527 219.802 186.82 218.54" stroke="#FFFFFF" stroke-width="1" stroke-linecap="round" stroke-linejoin="round" stroke-miterlimit="4" stroke-opacity="0.2" fill="none" fill-rule="nonzero" transform="matrix(-1 0 0 1 1259 221)"/><path d="M178.47 229.79C178.47 229.79 179 219.48 171.47 222.31" stroke="#FFFFFF" stroke-width="1" stroke-linecap="round" stroke-linejoin="round" stroke-miterlimit="4" stroke-opacity="0.2" fill="none" fill-rule="nonzero" transform="matrix(-1 0 0 1 1259 221)"/><path d="M163.1 229.87C161.581 229.649 160.031 229.934 158.69 230.68" stroke="#FFFFFF" stroke-width="1" stroke-linecap="round" stroke-linejoin="round" stroke-miterlimit="4" stroke-opacity="0.2" fill="none" fill-rule="nonzero" transform="matrix(-1 0 0 1 1259 221)"/><path d="M169.37 236.62C168.634 234.104 167.024 231.934 164.83 230.5" stroke="#FFFFFF" stroke-width="1" stroke-linecap="round" stroke-linejoin="round" stroke-miterlimit="4" stroke-opacity="0.2" fill="none" fill-rule="nonzero" transform="matrix(-1 0 0 1 1259 221)"/><path d="M163.45 271.41C164.555 272.207 165.746 272.878 167 273.41" stroke="#FFFFFF" stroke-width="1" stroke-linecap="round" stroke-linejoin="round" stroke-miterlimit="4" stroke-opacity="0.2" fill="none" fill-rule="nonzero" transform="matrix(-1 0 0 1 1259 221)"/><path d="M159 246.76C157 253.16 156.29 264.76 161.62 269.95" stroke="#FFFFFF" stroke-width="1" stroke-linecap="round" stroke-linejoin="round" stroke-miterlimit="4" stroke-opacity="0.2" fill="none" fill-rule="nonzero" transform="matrix(-1 0 0 1 1259 221)"/><path d="M169.37 240.43C165.06 238.43 161.5 240.83 159.74 244.87" stroke="#FFFFFF" stroke-width="1" stroke-linecap="round" stroke-linejoin="round" stroke-miterlimit="4" stroke-opacity="0.2" fill="none" fill-rule="nonzero" transform="matrix(-1 0 0 1 1259 221)"/><path d="M165.81 307.42 170.7 293.28C170.7 293.28 206.04 288.63 214.49 300.35 222.94 312.07 165.81 307.42 165.81 307.42Z" stroke="#263238" stroke-width="1" stroke-linecap="round" stroke-linejoin="round" stroke-miterlimit="4" stroke-opacity="1" fill="#407BFF" fill-rule="nonzero" fill-opacity="1" transform="matrix(-1 0 0 1 1259 221)"/><path d="M102.51 287.09C102.51 287.09 98.51 280.54 98.83 278.87 99.15 277.2 98.13 269.39 98.83 265.61 99.55 261.61 102.52 262.5 102.52 262.5 102.52 262.5 103.73 254.88 106.89 255.44 106.89 255.44 107.32 246.1 108.45 244.12 109.58 242.14 110.15 240.92 110.15 240.92 110.15 240.92 112.41 239.92 112.41 243.28L112.41 252.89 114.95 242.71 118.63 237.64C120.166 239.478 120.336 242.099 119.05 244.12 117.49 246.94 119.05 264.48 119.05 264.48 121.213 263.911 122.967 262.331 123.76 260.24 123.76 260.24 125.05 256.65 128.36 255.76 131.67 254.87 128.58 258.82 127.36 264.48 126.14 270.14 118.42 282.57 114.44 285.12" stroke="#263238" stroke-width="1" stroke-linecap="round" stroke-linejoin="round" stroke-miterlimit="4" stroke-opacity="1" fill="#FFFFFF" fill-rule="nonzero" fill-opacity="1" transform="matrix(-1 0 0 1 1259 221)"/><path d="M116.58 280.43 106.74 336.89 137 319.23 130.86 362.85C130.86 362.85 91.92 380.85 83.17 382.74 74.42 384.63 72.23 359.74 73.54 353.16 74.85 346.58 99 296.82 102 282.77" stroke="#263238" stroke-width="1" stroke-linecap="round" stroke-linejoin="round" stroke-miterlimit="4" stroke-opacity="1" fill="#FFFFFF" fill-rule="nonzero" fill-opacity="1" transform="matrix(-1 0 0 1 1259 221)"/><path d="M83.7 348.34C88.7633 344.363 94.4921 341.316 100.62 339.34" stroke="#263238" stroke-width="1" stroke-linecap="round" stroke-linejoin="round" stroke-miterlimit="4" stroke-opacity="1" fill="none" fill-rule="nonzero" transform="matrix(-1 0 0 1 1259 221)"/><path d="M147.81 308.33 146.51 349 145.93 367.15 116.34 374.58 108.45 376.58C92.16 365.58 94.56 337 94.56 337L102.5 331.29 107.26 332.24C107.26 332.24 137.2 310 147.81 308.33Z" fill="#407BFF" fill-rule="nonzero" fill-opacity="1" transform="matrix(-1 0 0 1 1259 221)"/><g clip-path="url(#clip4)"><path d="M146.51 349 145.93 367.15 116.34 374.58C113.73 366.71 119.13 368.87 119.13 368.87 117.363 366.197 116.402 363.073 116.36 359.87L121.81 362.38C118.52 354.07 124.07 344.73 124.07 344.73L125.07 353.73C124.07 344.73 134.72 329.58 134.72 329.58 134.72 329.58 142.52 335.74 146.51 349Z" fill="#000000" fill-rule="nonzero" fill-opacity="0.14" transform="matrix(-1 0 0 1 1259 221)"/></g><path d="M147.81 308.33 146.51 349 145.93 367.15 116.34 374.58 108.45 376.58C92.16 365.58 94.56 337 94.56 337L102.5 331.29 107.26 332.24C107.26 332.24 137.2 310 147.81 308.33Z" stroke="#263238" stroke-width="1" stroke-linecap="round" stroke-linejoin="round" stroke-miterlimit="4" stroke-opacity="1" fill="none" fill-rule="nonzero" transform="matrix(-1 0 0 1 1259 221)"/><path d="M123.09 349.29C123.09 349.29 122.98 357.68 126.99 364.6" stroke="#263238" stroke-width="1" stroke-linecap="round" stroke-linejoin="round" stroke-miterlimit="4" stroke-opacity="1" fill="none" fill-rule="nonzero" transform="matrix(-1 0 0 1 1259 221)"/><path d="M116.36 362.42C116.36 362.42 122.72 370.2 127.26 371.85" stroke="#263238" stroke-width="1" stroke-linecap="round" stroke-linejoin="round" stroke-miterlimit="4" stroke-opacity="1" fill="none" fill-rule="nonzero" transform="matrix(-1 0 0 1 1259 221)"/><path d="M107.26 332.2C107.26 332.2 102.04 343.06 105.05 353.73" stroke="#263238" stroke-width="1" stroke-linecap="round" stroke-linejoin="round" stroke-miterlimit="4" stroke-opacity="1" fill="none" fill-rule="nonzero" transform="matrix(-1 0 0 1 1259 221)"/><path d="M133.35 321.5C128.86 334.72 127.35 358.91 127.05 381.66 126.67 409.93 128.17 435.98 128.17 435.98 151.75 476.05 204.93 459.45 224.17 451.77L224.27 451.77C228.67 450 231.27 448.72 231.27 448.72 236.76 426.262 240.96 403.508 243.85 380.57 247.62 350.18 247.71 327.5 247.04 313.29 246.847 307.448 246.323 301.622 245.47 295.84 245.47 295.84 228.62 296.05 208.71 297.46 197.93 298.22 186.26 299.32 175.88 300.93 169.348 301.904 162.894 303.348 156.57 305.25 153.19 306.25 147.65 308.16 145.18 309.08 143.779 309.674 142.41 310.341 141.08 311.08" fill="#407BFF" fill-rule="nonzero" fill-opacity="1" transform="matrix(-1 0 0 1 1259 221)"/><path d="M208.65 297.42C197.75 302.1 180.93 307.88 174.78 307.69 168.06 307.49 160.01 307 156.51 305.21 162.834 303.308 169.288 301.864 175.82 300.89 186.2 299.28 197.87 298.18 208.65 297.42Z" fill="#000000" fill-rule="nonzero" fill-opacity="0.14" transform="matrix(-1 0 0 1 1259 221)"/><path d="M224.13 451.77C204.93 459.45 151.75 476.05 128.13 435.98 128.13 435.98 126.63 409.93 127.01 381.66 134.59 397.26 159.57 407.36 159.57 407.36 159.57 407.36 156.81 376.79 159.57 369.41 162.33 362.03 170.16 319.13 170.16 319.13 170.16 319.13 173.16 327.74 168.41 351.21 163.66 374.68 165.77 407.36 165.77 407.36 177.41 409.89 205.31 407.36 205.31 407.36 185.27 435.82 141 440.62 141 440.62 171.62 466.33 221.64 452.48 224.13 451.77Z" fill="#000000" fill-rule="nonzero" fill-opacity="0.14" transform="matrix(-1 0 0 1 1259 221)"/><path d="M243.8 380.53C242.96 373.89 242.17 368.88 242.17 368.88 240.17 384.65 219.35 389.71 224.23 384.38 229.11 379.05 237.81 362.38 237.81 362.38 233.33 349.32 240.64 311.02 240.64 311.02 240.64 311.02 243.18 311.71 246.99 313.21 247.66 327.46 247.57 350.14 243.8 380.53Z" fill="#000000" fill-rule="nonzero" fill-opacity="0.14" transform="matrix(-1 0 0 1 1259 221)"/><path d="M231.22 448.69C236.71 426.232 240.91 403.478 243.8 380.54L243.8 380.54C247.57 350.15 247.66 327.47 246.99 313.26 246.797 307.418 246.273 301.592 245.42 295.81 245.42 295.81 228.57 296.02 208.66 297.43 197.88 298.19 186.21 299.29 175.83 300.9 169.298 301.874 162.844 303.318 156.52 305.22 153.14 306.22 147.6 308.13 145.13 309.05 143.729 309.644 142.36 310.311 141.03 311.05" stroke="#263238" stroke-width="1" stroke-linecap="round" stroke-linejoin="round" stroke-miterlimit="4" stroke-opacity="1" fill="none" fill-rule="nonzero" transform="matrix(-1 0 0 1 1259 221)"/><path d="M133.35 321.5C128.86 334.72 127.35 358.91 127.05 381.66 126.67 409.93 128.17 435.98 128.17 435.98" stroke="#263238" stroke-width="1" stroke-linecap="round" stroke-linejoin="round" stroke-miterlimit="4" stroke-opacity="1" fill="none" fill-rule="nonzero" transform="matrix(-1 0 0 1 1259 221)"/><path d="M211.12 297.25C211.12 297.25 174.5 311.85 165.81 311" stroke="#263238" stroke-width="1" stroke-linecap="round" stroke-linejoin="round" stroke-miterlimit="4" stroke-opacity="1" fill="none" fill-rule="nonzero" transform="matrix(-1 0 0 1 1259 221)"/><path d="M170.5 317C170.5 317 159.88 388.9 163.44 413.43 163.44 413.43 160.49 436.99 157.22 451.72" stroke="#263238" stroke-width="1" stroke-linecap="round" stroke-linejoin="round" stroke-miterlimit="4" stroke-opacity="1" fill="none" fill-rule="nonzero" transform="matrix(-1 0 0 1 1259 221)"/><path d="M137 401.19C137 401.19 135.4 412.26 163.49 413.45 191.58 414.64 207.25 403.16 207.25 403.16" stroke="#263238" stroke-width="1" stroke-linecap="round" stroke-linejoin="round" stroke-miterlimit="4" stroke-opacity="1" fill="none" fill-rule="nonzero" transform="matrix(-1 0 0 1 1259 221)"/><path d="M325.49 231.08C324.77 225.18 324.25 209.84 325.49 208.86 326.73 207.88 333.26 197.7 333.26 197.7 334.67 197.81 334.26 200.04 334.26 200.04 334.26 200.04 342.75 185.39 344.7 182.43 346.65 179.47 347.97 181.43 347.64 184.7 347.64 184.7 349.97 179.91 351.02 181.38 353.08 184.28 348.3 198.73 348.3 198.73 348.3 198.73 352.62 198.41 352.41 203.31 352.41 203.31 355.04 202.49 355.26 206.76 355.41 209.6 354.04 217.94 351.12 216.2 351.12 216.2 349.27 228.09 338.12 233.82" stroke="#263238" stroke-width="1" stroke-linecap="round" stroke-linejoin="round" stroke-miterlimit="4" stroke-opacity="1" fill="#FFFFFF" fill-rule="nonzero" fill-opacity="1" transform="matrix(-1 0 0 1 1259 221)"/><path d="M334.24 200C334.24 200 331.52 204.84 329.67 208.22 327.82 211.6 327.82 213.44 327.82 213.44" stroke="#263238" stroke-width="1" stroke-linecap="round" stroke-linejoin="round" stroke-miterlimit="4" stroke-opacity="1" fill="none" fill-rule="nonzero" transform="matrix(-1 0 0 1 1259 221)"/><path d="M347.62 184.7C347.62 184.7 341.3 198.08 340 200" stroke="#263238" stroke-width="1" stroke-linecap="round" stroke-linejoin="round" stroke-miterlimit="4" stroke-opacity="1" fill="none" fill-rule="nonzero" transform="matrix(-1 0 0 1 1259 221)"/><path d="M348.28 198.73C348.28 198.73 345.77 201.24 345.45 201.62" stroke="#263238" stroke-width="1" stroke-linecap="round" stroke-linejoin="round" stroke-miterlimit="4" stroke-opacity="1" fill="none" fill-rule="nonzero" transform="matrix(-1 0 0 1 1259 221)"/><path d="M352.39 203.31C352.39 203.31 351.39 204.12 349.8 205.43" stroke="#263238" stroke-width="1" stroke-linecap="round" stroke-linejoin="round" stroke-miterlimit="4" stroke-opacity="1" fill="none" fill-rule="nonzero" transform="matrix(-1 0 0 1 1259 221)"/><path d="M351.1 216.2C351.1 216.2 351.65 212.39 351.65 212.07 351.65 211.75 353.39 210.54 353.93 208.8" stroke="#263238" stroke-width="1" stroke-linecap="round" stroke-linejoin="round" stroke-miterlimit="4" stroke-opacity="1" fill="none" fill-rule="nonzero" transform="matrix(-1 0 0 1 1259 221)"/><path d="M326.06 226.11C326.06 226.11 324.31 231.75 312.56 253.11 300.81 274.47 296 286.43 296 286.43L273.63 292.56 279.41 328.37C279.41 328.37 318 308 319.26 305.27 320.52 302.54 330.03 273.54 333.26 260.4 336.49 247.26 340.51 231.22 340.51 231.22" stroke="#263238" stroke-width="1" stroke-linecap="round" stroke-linejoin="round" stroke-miterlimit="4" stroke-opacity="1" fill="#FFFFFF" fill-rule="nonzero" fill-opacity="1" transform="matrix(-1 0 0 1 1259 221)"/><path d="M292.81 313.58C290.81 321.67 287.09 326.04 283.94 328.37 282.329 329.645 280.453 330.544 278.45 331L245.45 349.29C245.45 349.29 238.45 333.37 240.19 314.77 240.767 308.168 242.55 301.728 245.45 295.77L277.17 290.16 280.11 287.22 285.33 287.22C285.33 287.22 296.73 297.79 292.81 313.58Z" fill="#407BFF" fill-rule="nonzero" fill-opacity="1" transform="matrix(-1 0 0 1 1259 221)"/><g clip-path="url(#clip5)"><path d="M283.94 328.37C282.329 329.645 280.453 330.544 278.45 331L245.45 349.29C245.45 349.29 238.45 333.37 240.19 314.77 246.42 315.47 244.36 336.46 246.55 336.7 248.92 336.97 259.21 321.5 261.32 321.5 264.69 321.5 261.43 336.23 261.32 336.7 261.78 336.54 276.5 331.03 280.74 322.99 282.84 319 284.37 322.4 283.94 328.37Z" fill="#000000" fill-rule="nonzero" fill-opacity="0.14" transform="matrix(-1 0 0 1 1259 221)"/></g><path d="M292.81 313.58C290.81 321.67 287.09 326.04 283.94 328.37 282.329 329.645 280.453 330.544 278.45 331L245.45 349.29C245.45 349.29 238.45 333.37 240.19 314.77 240.767 308.168 242.55 301.728 245.45 295.77L277.17 290.16 280.11 287.22 285.33 287.22C285.33 287.22 296.73 297.79 292.81 313.58Z" stroke="#263238" stroke-width="1" stroke-linecap="round" stroke-linejoin="round" stroke-miterlimit="4" stroke-opacity="1" fill="none" fill-rule="nonzero" transform="matrix(-1 0 0 1 1259 221)"/><path d="M277.14 290.19C282.571 295.962 285.138 303.858 284.14 311.72" stroke="#263238" stroke-width="1" stroke-linecap="round" stroke-linejoin="round" stroke-miterlimit="4" stroke-opacity="1" fill="none" fill-rule="nonzero" transform="matrix(-1 0 0 1 1259 221)"/><path d="M258 328.37C258 328.37 248.34 341.1 245.42 349.29 245.42 349.29 237.42 375.58 226.34 382.84" stroke="#263238" stroke-width="1" stroke-linecap="round" stroke-linejoin="round" stroke-miterlimit="4" stroke-opacity="1" fill="none" fill-rule="nonzero" transform="matrix(-1 0 0 1 1259 221)"/><path d="M296 286.43C296 286.43 301.09 284.94 303.86 287.09" stroke="#263238" stroke-width="1" stroke-linecap="round" stroke-linejoin="round" stroke-miterlimit="4" stroke-opacity="1" fill="none" fill-rule="nonzero" transform="matrix(-1 0 0 1 1259 221)"/></g></g></g></g></svg>